<svg width="146" height="44" viewBox="0 0 146 44" fill="none" xmlns="http://www.w3.org/2000/svg">
<path d="M56.3115 30L61.5322 14.499H66.3554L71.5761 30H67.4404L66.4736 26.5947H61.414L60.4472 30H56.3115ZM63.9062 17.8721L62.2304 23.7588H65.6572L63.9814 17.8721H63.9062Z" fill="#1B1E1F"/>
<path d="M77.5879 30.2471C75.0205 30.2471 73.5596 28.6035 73.5596 25.832V18.3017H77.373V25.0156C77.373 26.3584 77.9961 27.1533 79.2529 27.1533C80.456 27.1533 81.2187 26.2402 81.2187 24.9404V18.3017H85.0215V30H81.2187V27.9375H81.1435C80.5527 29.4092 79.3603 30.2471 77.5879 30.2471Z" fill="#1B1E1F"/>
<path d="M88.0791 30V18.3017H91.8926V20.375H91.9678C92.2901 18.8926 93.2139 18.0547 94.5889 18.0547C94.9541 18.0547 95.2871 18.1084 95.5772 18.2051V21.46C95.2549 21.331 94.8145 21.2451 94.3633 21.2451C92.7627 21.2451 91.8926 22.126 91.8926 23.791V30H88.0791Z" fill="#1B1E1F"/>
<path d="M103.275 30.2471C99.5694 30.2471 97.2921 28.0127 97.2921 24.1562V24.1348C97.2921 20.3428 99.6446 18.0547 103.275 18.0547C106.917 18.0547 109.259 20.3213 109.259 24.1348V24.1562C109.259 28.0234 106.96 30.2471 103.275 30.2471ZM103.286 27.3574C104.586 27.3574 105.402 26.208 105.402 24.1562V24.1348C105.402 22.1152 104.565 20.9443 103.275 20.9443C101.986 20.9443 101.159 22.1152 101.159 24.1348V24.1562C101.159 26.2187 101.965 27.3574 103.286 27.3574Z" fill="#1B1E1F"/>
<path d="M112.478 30V14.499H117.752C120.706 14.499 122.726 16.4219 122.726 19.3008V19.3223C122.726 22.2012 120.706 24.1562 117.752 24.1562H113.939V30H112.478ZM117.408 15.8096H113.939V22.8457H117.408C119.793 22.8457 121.233 21.5244 121.233 19.333V19.3115C121.233 17.1308 119.793 15.8096 117.408 15.8096Z" fill="#1B1E1F"/>
<path d="M128.243 30.2041C126.041 30.2041 124.537 28.8828 124.537 26.9062V26.8848C124.537 24.9834 125.977 23.834 128.544 23.6621L132.025 23.4473V22.4805C132.025 20.8691 131.004 19.8916 129.264 19.8916C127.642 19.8916 126.578 20.6758 126.342 21.9433L126.32 22.0508H124.945L124.956 21.9219C125.171 19.999 126.761 18.624 129.285 18.624C131.842 18.624 133.443 20.0635 133.443 22.3516V30H132.025V27.959H131.982C131.369 29.291 129.898 30.2041 128.243 30.2041ZM125.987 26.9062C125.987 28.1308 127.019 28.958 128.533 28.958C130.488 28.958 132.025 27.583 132.025 25.7998V24.5644L128.716 24.79C126.965 24.8975 125.987 25.6601 125.987 26.8848V26.9062Z" fill="#1B1E1F"/>
<path d="M137.8 33.7598C137.521 33.7598 137.22 33.7275 137.016 33.6953V32.5244C137.155 32.5459 137.338 32.5674 137.521 32.5674C138.778 32.5674 139.433 32.1592 139.927 30.7949L140.195 30.0752L135.995 18.8281H137.521L140.904 28.582H140.947L144.342 18.8281H145.846L141.366 30.8916C140.625 32.8789 139.712 33.7598 137.8 33.7598Z" fill="#1B1E1F"/>
<path fill-rule="evenodd" clip-rule="evenodd" d="M25.982 18.5205H18.055C18.0408 18.7157 18.0466 26.174 18.0616 26.2426H25.9293C25.9404 26.2426 25.9516 26.2415 25.9626 26.2404L25.9689 26.2397C25.9712 26.2396 25.9732 26.237 25.9751 26.2354C25.9772 26.2337 25.9791 26.2319 25.982 26.2291V18.5205ZM21.1016 23.6798C21.0661 23.6604 21.0295 23.6404 20.9925 23.6209L20.9851 23.6257C20.9795 23.6294 20.9734 23.6334 20.9679 23.6381C20.9092 23.687 20.8502 23.7355 20.7913 23.7841C20.6519 23.8989 20.5122 24.014 20.3769 24.1334C20.2413 24.253 20.126 24.3922 20.0557 24.562C20.0108 24.6701 19.9838 24.7812 20.0068 24.9005C20.0383 25.0634 20.1341 25.1814 20.2606 25.2804C20.4697 25.4439 20.7104 25.544 20.9608 25.6224C21.2186 25.7032 21.482 25.7523 21.7529 25.771C22.0145 25.7889 22.2726 25.7727 22.5291 25.7302C22.7818 25.6884 23.0267 25.6147 23.2621 25.5125C23.4277 25.4406 23.5855 25.3556 23.7231 25.2371C23.8194 25.1542 23.8927 25.0558 23.927 24.9326C23.966 24.793 23.9342 24.6609 23.8734 24.5348C23.8189 24.4218 23.7438 24.3226 23.6541 24.2352C23.4542 24.0409 23.2384 23.865 23.0225 23.6892L22.9735 23.6492C22.9399 23.6217 22.9136 23.6322 22.8809 23.6529C22.5689 23.8501 22.2308 23.9487 21.8583 23.9228C21.677 23.9102 21.5021 23.8735 21.337 23.8003C21.2576 23.7651 21.1807 23.723 21.1016 23.6798ZM22.9414 20.9711C22.2967 20.5583 21.6543 20.5577 21.0047 20.9671C20.9796 20.9472 20.954 20.9271 20.928 20.9068C20.8707 20.862 20.812 20.8161 20.7549 20.7681L20.7034 20.7249C20.5785 20.6199 20.4535 20.515 20.3338 20.4045C20.2087 20.2892 20.1031 20.1566 20.0407 19.9958C19.9554 19.7761 20.0038 19.5827 20.1606 19.412C20.2718 19.2911 20.4112 19.2098 20.5551 19.1359C20.7696 19.0256 20.9985 18.9553 21.2317 18.8972C21.5382 18.8209 21.8501 18.8034 22.1634 18.8202C22.6804 18.8479 23.1678 18.979 23.6098 19.2574C23.7056 19.3178 23.7861 19.3937 23.8492 19.4865C23.9564 19.6441 23.9688 19.8132 23.9035 19.9909C23.8534 20.1272 23.7703 20.2419 23.6746 20.3487C23.5721 20.463 23.4542 20.5611 23.3365 20.659L23.28 20.7061C23.203 20.7707 23.1247 20.8342 23.046 20.8968C23.0233 20.9149 22.9993 20.9314 22.9746 20.9484C22.964 20.9558 22.9523 20.9634 22.9414 20.9711ZM23.3238 23.2232L23.3001 23.2644L23.3274 23.3014C23.3451 23.3253 23.361 23.3468 23.3779 23.3673L23.4019 23.3966L23.4544 23.4611C23.5292 23.5532 23.6041 23.6452 23.6826 23.7341C23.7719 23.8352 23.8641 23.9351 23.9642 24.0253C24.0665 24.1174 24.1835 24.1897 24.3187 24.2298C24.5239 24.2906 24.7053 24.2516 24.8649 24.11C24.9428 24.0408 25.0067 23.9599 25.0596 23.8706C25.2947 23.4737 25.4202 23.0406 25.4546 22.5851C25.4762 22.299 25.4709 22.0104 25.4155 21.7242C25.3581 21.4285 25.2725 21.1434 25.1366 20.8747C25.0639 20.7309 24.9817 20.5919 24.8577 20.4833C24.7552 20.3934 24.6386 20.3301 24.5009 20.332C24.3845 20.3336 24.2711 20.3635 24.1692 20.426C24.0371 20.5071 23.9208 20.6072 23.8182 20.7225C23.7531 20.7958 23.6899 20.8708 23.6267 20.9457L23.5702 21.0125C23.543 21.0446 23.516 21.077 23.4891 21.1094C23.4414 21.1665 23.3938 21.2237 23.3448 21.2798C23.3111 21.3183 23.3108 21.3547 23.3368 21.3951L23.345 21.4072C23.3497 21.4141 23.3544 21.421 23.3587 21.4282C23.5665 21.7667 23.648 22.1318 23.5929 22.5261C23.5627 22.7426 23.4921 22.9445 23.3776 23.1312C23.3593 23.161 23.3419 23.1916 23.3238 23.2232ZM19.4505 24.2644C19.3211 24.2585 19.212 24.213 19.1146 24.1325C18.9444 23.9917 18.8415 23.8051 18.7521 23.6096C18.6386 23.3619 18.5631 23.1018 18.5189 22.834C18.5002 22.7212 18.4935 22.6062 18.4869 22.4915L18.4829 22.424C18.4795 22.3677 18.4805 22.3112 18.4814 22.2547C18.4818 22.2317 18.4822 22.2087 18.4823 22.1857C18.4837 21.8074 18.5599 21.4443 18.7001 21.0932C18.7639 20.9336 18.8345 20.7782 18.9364 20.6389C18.9959 20.5572 19.0629 20.483 19.148 20.4255C19.2831 20.3341 19.4274 20.3096 19.5858 20.3514C19.7327 20.3902 19.8583 20.4658 19.972 20.5625C20.1241 20.6919 20.2507 20.8449 20.3772 20.9978L20.4031 21.0291C20.4232 21.0534 20.4436 21.0775 20.464 21.1016C20.4966 21.1402 20.5293 21.1789 20.5609 21.2184C20.6416 21.3192 20.6414 21.3318 20.5757 21.4419C20.5002 21.5687 20.4358 21.7004 20.3953 21.8432C20.267 22.2956 20.3253 22.7234 20.5612 23.1289C20.5664 23.1379 20.5721 23.1466 20.5778 23.1554C20.5822 23.1622 20.5866 23.1689 20.5908 23.1758C20.6371 23.251 20.6393 23.26 20.5825 23.3293C20.4665 23.4706 20.3494 23.611 20.229 23.7486C20.1488 23.8403 20.0661 23.9306 19.9768 24.0132C19.8757 24.1066 19.7636 24.1874 19.6276 24.2256C19.5878 24.2368 19.547 24.2449 19.5063 24.253C19.4878 24.2567 19.4689 24.2604 19.4505 24.2644ZM23.034 22.3214C23.0158 21.7191 22.5278 21.246 21.9167 21.2468C21.2973 21.2456 20.7923 21.74 20.8008 22.3731C20.8094 23.0185 21.3189 23.4785 21.9274 23.4718C22.5604 23.4648 23.0533 22.9617 23.034 22.3214Z" fill="#1B1E1F"/>
<path d="M22.0173 13.0082L18.3975 17.9388H25.6377L22.0173 13.0082Z" fill="#1B1E1F"/>
<path d="M18.3924 26.8159C18.404 26.8303 18.4146 26.8432 18.4244 26.8551C18.4435 26.8783 18.4597 26.898 18.4746 26.9185C18.5602 27.035 18.6456 27.1516 18.731 27.2682L18.7317 27.2692C18.8053 27.3696 18.8791 27.4705 18.9528 27.5709L19.9158 28.8809C20.3793 29.5115 20.8427 30.1422 21.3059 30.7729C21.4111 30.9163 21.5162 31.0598 21.6212 31.2033C21.7347 31.3583 21.8486 31.5139 21.9623 31.6687C21.9659 31.6736 21.9694 31.6788 21.9729 31.6839C21.9866 31.7043 22.0006 31.725 22.0248 31.7336L25.6346 26.8159H18.3924Z" fill="#1B1E1F"/>
<path d="M29.2453 22.8536L26.7607 26.2377H31.7305L29.2453 22.8536Z" fill="#1B1E1F"/>
<path d="M17.2745 26.2386L14.7886 22.8538L12.3038 26.2386H17.2745Z" fill="#1B1E1F"/>
<path d="M29.2459 21.8977L31.7274 18.5166H26.7629L29.2459 21.8977Z" fill="#1B1E1F"/>
<path d="M12.3052 18.5153L12.3316 18.552C12.3457 18.5715 12.358 18.5887 12.3706 18.6056L12.6196 18.9441C12.7858 19.1699 12.952 19.3957 13.1181 19.6217C13.3311 19.9115 13.544 20.2013 13.757 20.4913L13.9148 20.7062C14.1017 20.9606 14.2886 21.2151 14.4746 21.4703C14.5262 21.5411 14.5765 21.6129 14.6269 21.6847C14.6687 21.7443 14.7107 21.8042 14.7533 21.8634C14.7596 21.8721 14.7713 21.8769 14.7827 21.8815C14.7878 21.8836 14.7928 21.8857 14.7972 21.888L17.2726 18.5153H12.3052Z" fill="#1B1E1F"/>
<path d="M17.493 25.581V19.171L15.1395 22.375L17.493 25.581Z" fill="#1B1E1F"/>
<path d="M26.5485 19.1955C26.5495 19.1925 26.5507 19.1891 26.5518 19.1851L28.8952 22.375L26.5578 25.5586C26.5545 25.5586 26.5511 25.5595 26.5493 25.5582C26.5476 25.557 26.5468 25.5535 26.5468 25.5509C26.5462 23.4371 26.5455 21.3233 26.5452 19.2095C26.5452 19.2053 26.5466 19.2011 26.5485 19.1955Z" fill="#1B1E1F"/>
<path fill-rule="evenodd" clip-rule="evenodd" d="M37.2191 22.534C37.2191 30.9358 30.4475 37.7468 22.0942 37.7468C13.741 37.7468 6.96934 30.9358 6.96934 22.534C6.96934 14.1322 13.741 7.32115 22.0942 7.32115C30.4475 7.32115 37.2191 14.1322 37.2191 22.534ZM13.2029 26.8048L13.1764 26.8033C13.1562 26.802 13.1358 26.8008 13.1155 26.8008C12.7506 26.8008 12.3857 26.801 12.0207 26.8011L11.288 26.8014C11.2735 26.8014 11.2589 26.8005 11.2409 26.7994C11.2304 26.7988 11.2187 26.7981 11.2051 26.7974C11.2182 26.7777 11.2304 26.7588 11.2421 26.7407C11.2656 26.7043 11.2873 26.6707 11.3108 26.6385C11.4671 26.4248 11.6237 26.2114 11.7802 25.9979L11.7817 25.9959L11.7828 25.9944C11.9264 25.7986 12.07 25.6028 12.2134 25.4068C12.2503 25.3564 12.2864 25.3054 12.3225 25.2544C12.3664 25.1924 12.4104 25.1302 12.4557 25.0692C12.5948 24.8817 12.7344 24.6945 12.8739 24.5072C13.0135 24.32 13.153 24.1328 13.2922 23.9452C13.3558 23.8595 13.4179 23.7726 13.48 23.6858C13.5122 23.6407 13.5448 23.5951 13.5773 23.5502C13.6393 23.4643 13.7017 23.3785 13.764 23.2929L13.7788 23.2725L13.8374 23.1918C13.8849 23.1261 13.9325 23.0605 13.9809 22.9954C14.0562 22.894 14.1318 22.7928 14.2074 22.6916L14.2081 22.6907L14.2087 22.6899C14.2748 22.6014 14.3409 22.5129 14.4069 22.4243C14.4139 22.4149 14.4195 22.4044 14.4262 22.3918L14.4319 22.3813L14.4382 22.37L14.1057 21.9213C13.8529 21.5802 13.5999 21.2388 13.3481 20.8971C12.9881 20.4086 12.6296 19.9191 12.2714 19.4293C12.0324 19.1026 11.7938 18.7754 11.5529 18.4451L11.1902 17.948H17.6775C17.6899 17.9333 17.7024 17.9189 17.715 17.9047C17.7424 17.8733 17.7695 17.8424 17.7936 17.8093C17.8405 17.7451 17.8863 17.6801 17.9321 17.6151C17.9738 17.556 18.0156 17.4967 18.0581 17.4382C18.0931 17.3899 18.1294 17.3426 18.1656 17.2953C18.1954 17.2564 18.2252 17.2176 18.2542 17.1782C18.296 17.1217 18.3368 17.0645 18.3776 17.0073L18.4347 16.9275L18.5987 16.7042C18.6166 16.681 18.6347 16.6579 18.6528 16.6349C18.6899 16.5875 18.727 16.5401 18.7626 16.4917C18.9894 16.1839 19.2154 15.8754 19.4413 15.5669C19.6064 15.3415 19.7713 15.1158 19.9356 14.8899C20.0216 14.7717 20.1074 14.6533 20.1932 14.5349C20.2789 14.4165 20.3647 14.2982 20.4507 14.18C20.5234 14.0802 20.5966 13.9807 20.6698 13.8813L20.7652 13.7516L20.9313 13.5249L20.9813 13.4602C21.0195 13.411 21.0575 13.3618 21.0949 13.312L21.1518 13.2362C21.2422 13.1158 21.3328 12.9952 21.4215 12.8735C21.5181 12.7407 21.614 12.6075 21.7099 12.4742L21.7106 12.4732C21.7788 12.3784 21.8471 12.2835 21.9155 12.189C21.9351 12.1619 21.9559 12.1356 21.977 12.109C21.9873 12.0961 21.9977 12.0829 22.008 12.0696C22.0462 12.0833 22.0645 12.1121 22.0816 12.1392C22.0866 12.1471 22.0916 12.155 22.097 12.1622C22.4158 12.5929 22.7331 13.0247 23.0494 13.4571C23.1561 13.6031 23.2622 13.7495 23.3683 13.896C23.4741 14.0422 23.5806 14.1892 23.6871 14.3349C23.7977 14.4859 23.9091 14.6363 24.0206 14.7867C24.0977 14.8908 24.1749 14.9949 24.2518 15.0993C24.3594 15.2454 24.4667 15.3917 24.5741 15.5381L24.8052 15.853L25.1264 16.2894C25.2574 16.4672 25.3883 16.645 25.519 16.8229C25.6958 17.0635 25.8721 17.3045 26.0481 17.5457C26.1017 17.6192 26.1549 17.693 26.2081 17.7668L26.2088 17.7677C26.2448 17.8177 26.2808 17.8677 26.317 17.9176C26.3208 17.923 26.3255 17.9278 26.3311 17.9336C26.3344 17.937 26.3379 17.9407 26.3419 17.945H32.8408C32.7327 18.1034 32.6209 18.2535 32.5101 18.4022C32.4394 18.497 32.3691 18.5913 32.3006 18.6868C32.1492 18.8977 31.9953 19.107 31.8415 19.3162L31.7627 19.4234C31.666 19.5549 31.5689 19.6861 31.4718 19.8172C31.3867 19.9322 31.3016 20.0472 31.2167 20.1624C31.0557 20.381 30.8955 20.6002 30.7352 20.8194L30.6818 20.8924C30.6171 20.9808 30.5527 21.0694 30.4883 21.1579L30.4865 21.1604C30.3713 21.3186 30.2562 21.4768 30.1399 21.6341C30.017 21.8003 29.8927 21.9655 29.7668 22.1328C29.709 22.2098 29.6508 22.2871 29.5922 22.3653C29.608 22.3878 29.6237 22.4106 29.6396 22.4335C29.6737 22.483 29.7086 22.5335 29.7446 22.5826C29.8644 22.7458 29.9845 22.9089 30.1046 23.072L30.1062 23.0742C30.2268 23.238 30.3474 23.4018 30.4678 23.5658C30.6176 23.7699 30.7672 23.9742 30.9168 24.1785C31.148 24.4941 31.3792 24.8098 31.6111 25.1249C31.8189 25.4074 32.0276 25.6893 32.2363 25.9712L32.5617 26.4109C32.6236 26.4945 32.6852 26.5785 32.7473 26.6631L32.8345 26.782L32.8175 26.807C32.8103 26.8063 32.8034 26.8054 32.7967 26.8045C32.7827 26.8027 32.7692 26.8009 32.7558 26.8009C32.2183 26.8006 31.6809 26.8005 31.1436 26.8006C31.1313 26.8006 31.119 26.8019 31.1066 26.8032C31.1005 26.8038 31.0944 26.8044 31.0883 26.8049L31.0535 26.804C31.0439 26.8038 31.0342 26.8037 31.0246 26.8037L30.258 26.8032C29.6203 26.8028 28.9821 26.8024 28.3443 26.8024C27.7327 26.8024 27.1212 26.8032 26.5096 26.8044C26.4899 26.8044 26.4701 26.8077 26.4504 26.811L26.4361 26.8134L26.4243 26.8151H26.3345L22.0185 32.692L22.0041 32.6763L21.9921 32.6635C21.9734 32.6437 21.9556 32.6247 21.9404 32.6039C21.8776 32.5177 21.8153 32.431 21.753 32.3443C21.6991 32.2693 21.6446 32.1935 21.5903 32.1187C21.4044 31.8628 21.218 31.6071 21.0311 31.3518C20.83 31.0771 20.629 30.8024 20.4263 30.5288C20.3824 30.4696 20.3372 30.4115 20.292 30.3534C20.2432 30.2908 20.1943 30.2279 20.1472 30.164C20.0904 30.0867 20.035 30.0083 19.9797 29.9299C19.929 29.858 19.8781 29.786 19.8262 29.7149C19.6529 29.4779 19.4789 29.2414 19.3049 29.0049L19.3033 29.0028C19.2041 28.8679 19.1048 28.733 19.0057 28.598C18.7572 28.2597 18.5088 27.9212 18.2609 27.5823C18.1603 27.4447 18.06 27.3069 17.9597 27.169C17.8846 27.0657 17.8094 26.9623 17.734 26.859C17.7267 26.849 17.718 26.84 17.7086 26.8302L17.6995 26.8207L17.6946 26.8154H17.6088C17.5856 26.8141 17.5624 26.8124 17.5392 26.8106C17.4888 26.8069 17.4383 26.8032 17.3879 26.8032C16.293 26.8024 15.1983 26.8025 14.1034 26.8029C13.9132 26.8029 13.7229 26.8033 13.5327 26.8038L13.2029 26.8048Z" fill="#1B1E1F"/>
<path d="M5.21219 27.3514C6.01116 29.8922 7.31935 32.132 9.1306 34.0925C9.07653 34.1618 9.02611 34.2316 8.97022 34.2966C8.84428 34.4422 8.7156 34.5854 8.58807 34.7299C8.45597 34.8796 8.32753 35.033 8.1911 35.1786C7.99945 35.3834 7.79937 35.5799 7.5678 35.741C7.31798 35.9146 7.03987 35.9496 6.74442 35.9039C6.40152 35.851 6.09877 35.7028 5.80902 35.5227C5.32239 35.22 4.90739 34.8337 4.52022 34.4161C4.10751 33.9709 3.74818 33.4858 3.43744 32.9648C3.11393 32.4222 2.87301 31.8441 2.68296 31.2438C2.56045 30.8566 2.46577 30.4628 2.40577 30.0606C2.36493 29.7873 2.33687 29.5139 2.34211 29.2378C2.34645 29.0149 2.37246 28.7941 2.43269 28.5791C2.49566 28.3542 2.59741 28.1501 2.78175 27.9958C2.91773 27.882 3.08017 27.8199 3.24466 27.7645C3.56977 27.655 3.90446 27.5816 4.24052 27.515C4.52912 27.458 4.81955 27.4098 5.1093 27.3585C5.13896 27.3532 5.16953 27.3544 5.21219 27.3514Z" fill="#1B1E1F"/>
<path d="M4.79548 18.2272C4.20655 20.8248 4.20917 23.4186 4.78705 26.0244C4.70544 26.0571 4.62676 26.092 4.54574 26.12C4.3636 26.1824 4.18035 26.2413 3.9974 26.302C3.80788 26.3648 3.61968 26.4327 3.42847 26.4899C3.15981 26.5703 2.88798 26.6393 2.60679 26.6619C2.30354 26.6862 2.04563 26.5764 1.81335 26.3882C1.54374 26.1698 1.35675 25.8893 1.19713 25.5878C0.929052 25.0813 0.764973 24.5386 0.640731 23.9828C0.508254 23.3904 0.442038 22.7903 0.435885 22.1837C0.429561 21.552 0.512441 20.9313 0.65049 20.3169C0.739578 19.9207 0.856033 19.5328 1.00668 19.1551C1.10902 18.8983 1.2224 18.648 1.36594 18.4121C1.48191 18.2217 1.61558 18.044 1.77585 17.8886C1.94351 17.7259 2.13416 17.6008 2.37111 17.5604C2.54591 17.5305 2.71749 17.5586 2.88753 17.5936C3.22357 17.6626 3.5497 17.7677 3.87357 17.8794C4.15165 17.9754 4.42683 18.08 4.70303 18.1815C4.73129 18.1919 4.75713 18.2083 4.79548 18.2272Z" fill="#1B1E1F"/>
<path d="M5.19805 16.8615C4.5848 16.7593 3.97017 16.6616 3.37425 16.4782C3.22368 16.4319 3.07196 16.3807 2.93211 16.3098C2.65673 16.1701 2.5 15.9283 2.40942 15.6413C2.35604 15.4723 2.33231 15.2978 2.31292 15.1212C2.28645 14.882 2.30174 14.6443 2.32615 14.4086C2.35079 14.1703 2.39916 13.9335 2.45049 13.699C2.60654 12.9867 2.87165 12.3139 3.20177 11.6644C3.44931 11.1775 3.75412 10.7287 4.1025 10.31C4.30326 10.0686 4.51476 9.83437 4.7372 9.61283C5.11889 9.23313 5.53115 8.88843 6.00158 8.61985C6.21444 8.49829 6.43506 8.39104 6.67758 8.33832C6.9217 8.28515 7.16513 8.26652 7.40103 8.3724C7.57214 8.4492 7.71679 8.56645 7.85276 8.69279C8.23924 9.05226 8.58214 9.45218 8.9214 9.85505C8.98939 9.93594 9.05646 10.0177 9.12673 10.1023C8.84132 10.4383 8.55203 10.7669 8.27643 11.1066C8.0006 11.4468 7.73937 11.7987 7.49457 12.1625C7.24818 12.5284 7.00976 12.8985 6.78778 13.2798C6.56853 13.6568 6.35886 14.0389 6.17452 14.4336C5.99041 14.8276 5.81336 15.2255 5.65161 15.6291C5.48985 16.0322 5.35068 16.4437 5.19805 16.8615Z" fill="#1B1E1F"/>
<path d="M16.906 5.21715C15.6369 5.60866 14.4402 6.13514 13.3011 6.79159C12.156 7.45146 11.0995 8.23197 10.1217 9.12656C9.99071 9.02158 9.86408 8.92683 9.74522 8.82344C9.47373 8.58758 9.20269 8.35081 8.93781 8.10746C8.76488 7.94862 8.61042 7.77162 8.47034 7.58234C8.37155 7.44873 8.32159 7.29808 8.29239 7.13675C8.2447 6.87385 8.31588 6.6289 8.40304 6.38759C8.53924 6.01107 8.76396 5.685 9.01127 5.37416C9.29007 5.02332 9.60765 4.70884 9.94622 4.41572C10.3384 4.07602 10.7577 3.77268 11.2033 3.50546C11.9395 3.06373 12.7344 2.7672 13.5655 2.56338C13.8509 2.4934 14.1398 2.43341 14.4352 2.41614C14.6166 2.40546 14.798 2.37865 14.9789 2.38137C15.2547 2.38569 15.529 2.41341 15.7929 2.50726C16.0824 2.61019 16.2942 2.79083 16.4137 3.07714C16.5255 3.34458 16.601 3.62271 16.6635 3.90447C16.7269 4.19009 16.7851 4.47707 16.8401 4.76451C16.8682 4.9113 16.8837 5.06036 16.906 5.21715Z" fill="#1B1E1F"/>
<path d="M16.9156 38.9915C16.8613 39.2855 16.8143 39.563 16.758 39.8384C16.7009 40.1176 16.6396 40.3962 16.5704 40.6727C16.5342 40.8177 16.4812 40.959 16.4288 41.0995C16.3012 41.4396 16.0414 41.6441 15.7058 41.7496C15.3565 41.8593 14.9953 41.8952 14.6289 41.8525C14.4863 41.8359 14.3433 41.8209 14.2007 41.8041C13.8966 41.7686 13.5991 41.698 13.3066 41.6114C12.3481 41.3283 11.4486 40.9218 10.643 40.3242C10.3446 40.1029 10.063 39.862 9.79108 39.6084C9.44612 39.2869 9.13516 38.937 8.85751 38.5573C8.6362 38.2546 8.4546 37.9308 8.35034 37.5677C8.27893 37.3189 8.26341 37.0723 8.35992 36.8258C8.42312 36.6645 8.52966 36.5316 8.64396 36.4061C8.87393 36.1537 9.12102 35.918 9.38042 35.696C9.6218 35.4893 9.86774 35.2877 10.1192 35.0775C11.0945 35.9742 12.1556 36.7533 13.3027 37.4152C14.4421 38.0726 15.641 38.597 16.9156 38.9915Z" fill="#1B1E1F"/>
<path d="M34.2869 9.10474C33.3015 8.20016 32.2374 7.42259 31.0862 6.76591C29.9439 6.11423 28.7459 5.58684 27.4765 5.20192C27.4909 5.10171 27.5018 5.00196 27.5201 4.90334C27.5707 4.62999 27.6207 4.35641 27.6775 4.0842C27.7427 3.77199 27.8249 3.46364 27.9325 3.1628C28.0573 2.81401 28.2994 2.58292 28.6514 2.46181C28.8353 2.39864 29.0245 2.36228 29.2166 2.35296C29.4972 2.33956 29.7789 2.33706 30.058 2.37637C30.4994 2.4384 30.9327 2.53861 31.3561 2.6779C31.8179 2.82968 32.2664 3.01487 32.6992 3.23642C33.2333 3.50977 33.7247 3.84515 34.1833 4.23076C34.5264 4.51933 34.8481 4.82949 35.1436 5.16579C35.4536 5.5189 35.7278 5.89723 35.9215 6.32759C36.0158 6.53732 36.0828 6.75659 36.0924 6.98882C36.1027 7.23649 36.019 7.45395 35.8698 7.64891C35.7103 7.85728 35.5284 8.04542 35.3313 8.21788C35.0151 8.49487 34.6946 8.76731 34.3754 9.04112C34.3501 9.06293 34.3211 9.08043 34.2869 9.10474Z" fill="#1B1E1F"/>
<path d="M34.2901 35.1034C34.3836 35.1791 34.4662 35.2445 34.5474 35.3113C34.928 35.6247 35.3035 35.9437 35.6434 36.3016C35.7685 36.4331 35.8919 36.5674 35.9795 36.7281C36.0776 36.9076 36.1146 37.1005 36.099 37.3041C36.0682 37.7095 35.899 38.0626 35.6854 38.4C35.4862 38.7147 35.2501 39.0005 34.9919 39.2669C34.3715 39.9067 33.6704 40.4439 32.8858 40.8693C32.3645 41.1519 31.8126 41.3619 31.2436 41.5287C30.9327 41.6198 30.6176 41.695 30.2982 41.7493C30.1419 41.7759 29.9831 41.7904 29.8248 41.8013C29.6471 41.8136 29.4687 41.8245 29.2907 41.8206C29.0445 41.8154 28.8027 41.7738 28.57 41.6886C28.2688 41.5784 28.0603 41.3787 27.946 41.0758C27.8288 40.7652 27.7459 40.4457 27.6782 40.1224C27.612 39.8058 27.5561 39.4873 27.4975 39.1691C27.4881 39.118 27.4874 39.0653 27.482 39.0046C30.0352 38.2091 32.3029 36.9123 34.2901 35.1034Z" fill="#1B1E1F"/>
<path d="M39.2235 16.8495C38.4104 14.2937 37.0937 12.0466 35.2747 10.0823C35.3183 10.0295 35.3555 9.98273 35.3947 9.93752C35.6154 9.6828 35.8319 9.42467 36.0584 9.1754C36.28 8.93159 36.5102 8.6955 36.7753 8.49645C37.018 8.31444 37.2872 8.25582 37.5872 8.29559C37.9402 8.34217 38.2514 8.48736 38.5486 8.67073C39.1149 9.02021 39.5908 9.47102 40.0241 9.97137C40.2572 10.2406 40.4733 10.5219 40.6747 10.8146C41.0754 11.3968 41.3808 12.0266 41.6122 12.6935C41.7536 13.1019 41.8695 13.5168 41.9453 13.9417C41.9815 14.145 42.0016 14.3516 42.0215 14.5575C42.0356 14.7038 42.0468 14.8517 42.0418 14.9983C42.0322 15.2769 41.9975 15.5523 41.8889 15.8138C41.7774 16.0824 41.5903 16.2698 41.3161 16.3744C41.0163 16.4887 40.7076 16.57 40.3946 16.637C40.1847 16.682 39.9748 16.7261 39.7637 16.7645C39.586 16.797 39.4069 16.8211 39.2235 16.8495Z" fill="#1B1E1F"/>
<path d="M35.2797 34.1234C37.0956 32.1593 38.4172 29.91 39.2246 27.3551C39.3369 27.3714 39.4487 27.3837 39.5591 27.4044C39.863 27.4616 40.1678 27.5159 40.4694 27.5839C40.7518 27.6475 41.0318 27.7216 41.3037 27.8259C41.6573 27.9617 41.8645 28.2231 41.9756 28.5696C42.0354 28.7561 42.0717 28.9486 42.0696 29.1465C42.0678 29.3319 42.0792 29.5182 42.0646 29.7025C42.0488 29.9009 42.0158 30.0983 41.9797 30.2944C41.8476 31.0111 41.5978 31.6887 41.2836 32.3442C41.0135 32.9078 40.6765 33.4295 40.2761 33.9094C39.8037 34.4756 39.283 34.9916 38.6707 35.4102C38.4234 35.5793 38.1601 35.7172 37.8788 35.8197C37.6812 35.8917 37.4752 35.9196 37.2658 35.9074C37.0534 35.8949 36.879 35.7913 36.7152 35.6647C36.4348 35.4479 36.1964 35.1884 35.961 34.9269C35.7456 34.6878 35.5417 34.4388 35.3329 34.1939C35.316 34.1741 35.3014 34.1525 35.2797 34.1234Z" fill="#1B1E1F"/>
<path d="M39.6363 25.982C40.1976 23.3667 40.1883 20.7578 39.5809 18.1481C39.6858 18.105 39.7882 18.0586 39.8938 18.0201C40.1844 17.9145 40.4743 17.8059 40.7685 17.7106C41.0439 17.6214 41.3225 17.5425 41.6096 17.4936C41.9831 17.4303 42.2945 17.5495 42.5667 17.791C42.7132 17.9211 42.8425 18.0682 42.9416 18.2395C43.0346 18.4 43.1393 18.5545 43.2207 18.7205C43.3083 18.8991 43.3804 19.0859 43.4494 19.273C43.701 19.9569 43.8314 20.6672 43.8952 21.3913C43.95 22.0139 43.9259 22.6345 43.826 23.2514C43.7081 23.9794 43.5231 24.6887 43.2096 25.3609C43.083 25.6324 42.9268 25.8853 42.737 26.1168C42.6037 26.2795 42.4407 26.4085 42.2542 26.5047C42.0651 26.6022 41.8623 26.6019 41.6569 26.5765C41.3052 26.5329 40.9678 26.4311 40.6319 26.3261C40.3248 26.2302 40.0224 26.1199 39.7179 26.0155C39.6933 26.0071 39.6698 25.996 39.6363 25.982Z" fill="#1B1E1F"/>
<path d="M26.1525 4.64701C24.852 4.37766 23.5498 4.26152 22.2353 4.28698C20.914 4.31255 19.6119 4.48652 18.3239 4.79838C18.2598 4.64325 18.1946 4.49916 18.1404 4.35126C18.0163 4.01368 17.8931 3.67553 17.7785 3.33458C17.7037 3.11203 17.6538 2.88246 17.6224 2.64909C17.6003 2.4844 17.6292 2.32833 17.6815 2.17293C17.7665 1.91965 17.9471 1.73943 18.1398 1.5701C18.4408 1.30601 18.7949 1.12881 19.1615 0.97584C19.575 0.803032 20.0049 0.68078 20.4428 0.587363C20.9503 0.47901 21.4639 0.4156 21.9831 0.396493C22.8411 0.364753 23.6804 0.488481 24.5067 0.710916C24.7905 0.787306 25.0724 0.874103 25.3396 1.00151C25.5036 1.07966 25.6754 1.14368 25.8326 1.23335C26.0721 1.3702 26.2989 1.52678 26.4849 1.73632C26.6888 1.96616 26.7871 2.22653 26.7537 2.53499C26.7226 2.82319 26.6546 3.10323 26.5734 3.3802C26.4912 3.66098 26.4037 3.94043 26.3132 4.21873C26.2669 4.36084 26.2086 4.49889 26.1525 4.64701Z" fill="#1B1E1F"/>
<path d="M18.2772 39.414C19.5699 39.719 20.8684 39.8709 22.1831 39.8816C23.5046 39.8924 24.8109 39.7543 26.1071 39.478C26.1669 39.6349 26.2281 39.7807 26.2782 39.93C26.3929 40.2709 26.5068 40.6123 26.6119 40.9563C26.6806 41.1808 26.7242 41.4116 26.7492 41.6458C26.7667 41.811 26.7335 41.9662 26.677 42.1201C26.585 42.371 26.3996 42.5462 26.2022 42.7101C25.8941 42.9659 25.5353 43.1333 25.1646 43.2761C24.7465 43.4374 24.3134 43.5478 23.8731 43.6292C23.3629 43.7235 22.8477 43.7728 22.3281 43.7776C21.4696 43.7857 20.634 43.6389 19.8141 43.3939C19.5325 43.3097 19.2531 43.2152 18.9896 43.0805C18.8278 42.9978 18.6578 42.9291 18.5032 42.8352C18.2675 42.6918 18.045 42.529 17.8649 42.3144C17.6674 42.0791 17.5763 41.8161 17.6182 41.5087C17.6572 41.2214 17.7329 40.9434 17.8217 40.6688C17.9116 40.3903 18.0067 40.1134 18.1049 39.8377C18.155 39.6969 18.2171 39.5605 18.2772 39.414Z" fill="#1B1E1F"/>
</svg>
