<svg fill="none" height="28" viewBox="0 0 124 28" width="124" xmlns="http://www.w3.org/2000/svg"><path d="m.424805 22 7.119145-21.137695h6.57715l7.1191 21.137695h-5.6396l-1.3184-4.6436h-6.89939l-1.31836 4.6436zm10.356395-16.53809-2.28511 8.02739h4.67281l-2.2851-8.02739zm18.6569 16.87499c-3.501 0-5.4932-2.2412-5.4932-6.0205v-10.26855h5.2002v9.15525c0 1.8311.8496 2.9151 2.5635 2.9151 1.6406 0 2.6807-1.2452 2.6807-3.0176v-9.05275h5.1855v15.95215h-5.1855v-2.8125h-.1026c-.8056 2.0068-2.4316 3.1494-4.8486 3.1494zm14.3062-.3369v-15.95215h5.2002v2.82715h.1026c.4394-2.02148 1.6992-3.16406 3.5742-3.16406.498 0 .9521.07324 1.3476.20508v4.43848c-.4394-.1758-1.04-.293-1.6552-.293-2.1826 0-3.3692 1.2012-3.3692 3.4717v8.4668zm20.7223.3369c-5.0537 0-8.1592-3.0469-8.1592-8.3057v-.0292c0-5.17095 3.208-8.29106 8.1592-8.29106 4.9658 0 8.1592 3.09082 8.1592 8.29106v.0292c0 5.2735-3.1348 8.3057-8.1592 8.3057zm.0147-3.9404c1.7724 0 2.8857-1.5674 2.8857-4.3653v-.0292c0-2.754-1.1426-4.35063-2.9004-4.35063s-2.8857 1.59663-2.8857 4.35063v.0292c0 2.8126 1.0986 4.3653 2.9004 4.3653z" fill="#4c51a9"/><path d="m77.0883 22v-21.137695h7.5293c3.9697 0 6.7822 2.739255 6.7822 6.752925v.0293c0 4.01367-2.8125 6.81157-6.7822 6.81157h-4.8926v7.5439zm6.8554-18.79395h-4.2187v8.90625h4.2187c3.0176 0 4.7608-1.6553 4.7608-4.43847v-.0293c0-2.7832-1.7432-4.43848-4.7608-4.43848zm14.8776 19.08695c-3.0322 0-5.0684-1.8311-5.0684-4.5996v-.0293c0-2.5928 2.0215-4.2188 5.5225-4.4239l4.3656-.249v-1.2744c0-1.86035-1.216-2.98828-3.34-2.98828-1.9631 0-3.1936.9375-3.4865 2.29978l-.0293.1319h-2.461l.0147-.1612c.2197-2.50486 2.4023-4.52634 5.9911-4.52634 3.604 0 5.859 1.94824 5.859 4.99514v10.5322h-2.548v-2.4756h-.059c-.894 1.6699-2.725 2.7686-4.7607 2.7686zm-2.4609-4.5996c0 1.4648 1.2011 2.3877 3.0322 2.3877 2.4024 0 4.2484-1.6553 4.2484-3.8672v-1.2451l-4.0726.249c-2.0362.1172-3.208 1.0254-3.208 2.4463zm16.1816 9.4336c-.498 0-1.04-.0586-1.363-.1172v-2.0801c.22.0439.513.0879.821.0879 1.611 0 2.504-.4102 3.12-2.1387l.307-.8643-5.654-15.24898h2.725l4.204 12.68558h.058l4.219-12.68558h2.681l-5.947 16.18648c-1.084 2.9151-2.417 4.1749-5.171 4.1749z" fill="#9fa5ff"/></svg>