<svg fill="none" height="197" viewBox="0 0 191 197" width="191" xmlns="http://www.w3.org/2000/svg"><path d="m0 188.614 11.8125-33.821h8.3203l11.7891 33.821h-7.4297l-2.5547-8.203h-11.95312l-2.55469 8.203zm15.8906-27.258-4.2656 13.758h8.6719l-4.2657-13.758z" fill="#262627"/><path d="m45.1556 189.129c-5.5312 0-8.6719-3.539-8.6719-9.422v-16.218h6.8438v14.789c0 3.281 1.5469 5.179 4.6172 5.179s5.0156-2.25 5.0156-5.531v-14.437h6.8438v25.125h-6.8438v-4.149h-.1406c-1.2891 2.883-3.8672 4.664-7.6641 4.664z" fill="#262627"/><path d="m66.8972 188.614v-25.125h6.8437v4.383h.1407c.75-3.094 2.789-4.899 5.7187-4.899.75 0 1.4531.117 1.9688.258v6.023c-.5625-.234-1.5-.375-2.4844-.375-3.375 0-5.3438 2.016-5.3438 5.672v14.063z" fill="#262627"/><path d="m97.7091 189.129c-7.6407 0-12.4454-4.898-12.4454-13.078v-.047c0-8.086 4.9219-13.031 12.4219-13.031 7.5234 0 12.4684 4.899 12.4684 13.031v.047c0 8.203-4.851 13.078-12.4449 13.078zm.0234-5.367c3.3285 0 5.4605-2.812 5.4605-7.711v-.047c0-4.851-2.179-7.664-5.5074-7.664-3.3047 0-5.4609 2.813-5.4609 7.664v.047c0 4.922 2.1328 7.711 5.5078 7.711z" fill="#262627"/><path d="m117.271 188.614v-33.821h11.508c6.445 0 10.851 4.196 10.851 10.477v.047c0 6.281-4.406 10.547-10.851 10.547h-8.321v12.75zm10.758-30.961h-7.571v15.351h7.571c5.203 0 8.343-2.882 8.343-7.664v-.047c0-4.757-3.14-7.64-8.343-7.64z" fill="#262627"/><path d="m151.669 189.059c-4.805 0-8.086-2.883-8.086-7.195v-.047c0-4.149 3.14-6.656 8.742-7.031l7.594-.469v-2.11c0-3.515-2.227-5.648-6.024-5.648-3.539 0-5.859 1.711-6.375 4.477l-.047.234h-3l.024-.281c.469-4.196 3.937-7.196 9.445-7.196 5.578 0 9.07 3.141 9.07 8.133v16.688h-3.093v-4.453h-.094c-1.336 2.906-4.547 4.898-8.156 4.898zm-4.922-7.195c0 2.672 2.25 4.476 5.555 4.476 4.265 0 7.617-3 7.617-6.89v-2.696l-7.219.493c-3.82.234-5.953 1.898-5.953 4.57z" fill="#262627"/><path d="m172.52 196.817c-.61 0-1.266-.07-1.711-.141v-2.554c.304.046.703.093 1.101.093 2.742 0 4.172-.89 5.25-3.867l.586-1.57-9.164-24.539h3.328l7.383 21.281h.094l7.406-21.281h3.281l-9.773 26.32c-1.617 4.336-3.609 6.258-7.781 6.258z" fill="#262627"/><g fill="#22272a"><path clip-rule="evenodd" d="m108.065 48.4103h-21.1678c-.038.5212-.0227 20.4374.0174 20.6205h21.0094c.03 0 .06-.003.089-.006l.017-.0017.001-.0002.002-.0005c.005-.0018.009-.0072.013-.0107.006-.0047.011-.0094.019-.017zm-13.0318 13.7773c-.0955-.0523-.1925-.1053-.2922-.1578-.0062.0043-.0128.0083-.0196.0128-.0152.0101-.0314.0208-.0461.0331-.1569.1308-.3145.2607-.4722.3905-.3721.3065-.7447.6134-1.1059.9323-.3621.3194-.67.6911-.8577 1.1444-.1198.2888-.1919.5853-.1305.9039.084.435.3399.7502.6777 1.0144.5583.4367 1.2011.7039 1.8698.9133.6884.2158 1.3917.3471 2.1151.3968.6986.048 1.3878.0046 2.0728-.1088.6747-.1117 1.3286-.3084 1.9576-.5815.442-.192.863-.4189 1.231-.7353.257-.2213.453-.4843.544-.8131.104-.3729.019-.7255-.143-1.0624-.146-.3016-.346-.5666-.586-.7998-.533-.5189-1.11-.9885-1.686-1.4581l-.131-.1069c-.0896-.0735-.16-.0454-.2474.0098-.833.5267-1.7359.7901-2.7305.7209-.4841-.0336-.9511-.1317-1.3922-.3271-.212-.0942-.4164-.2059-.6277-.3214zm4.9118-7.2333c-1.7214-1.1023-3.4368-1.104-5.1714-.0106-.0667-.053-.135-.1063-.2039-.1603l-.001-.0007c-.153-.1197-.3099-.2424-.4622-.3704l-.1376-.1156c-.3336-.2802-.6672-.5604-.9871-.8555-.3339-.3079-.6159-.6618-.7826-1.0912-.2278-.5867-.0986-1.1032.3203-1.559.2968-.3228.6692-.5399 1.0535-.7374.5728-.2944 1.184-.4822 1.8067-.6372.8184-.2039 1.6514-.2506 2.4878-.2056 1.3806.0739 2.6825.4239 3.8625 1.1673.256.1614.471.364.639.6117.286.421.32.8725.145 1.347-.134.364-.355.6703-.611.9553-.274.3054-.588.5672-.903.8286l-.078.0648-.073.0611c-.205.1725-.414.342-.625.5094-.06.0483-.124.0923-.19.1378-.029.0199-.0594.0396-.089.0605zm.98 6.086c-.007.0125-.014.0252-.022.0379l.027.0364.046.0622c.047.064.09.1213.135.1763.038.0459.075.0919.113.1379.03.0375.061.075.091.1124.2.2459.4.4918.61.7292.238.2698.484.5365.752.7774.273.2459.585.4392.946.5462.548.1623 1.033.0582 1.459-.3198.208-.1848.378-.401.52-.6393.627-1.0599.963-2.2166 1.054-3.4327.058-.7642.044-1.5348-.104-2.299-.153-.7897-.382-1.5509-.745-2.2683-.194-.3841-.414-.7553-.745-1.0454-.273-.24-.585-.4091-.952-.404-.311.0042-.614.0841-.886.251-.353.2167-.663.4839-.937.7918-.174.1958-.343.3958-.512.5958l-.099.1176-.052.061c-.072.0856-.144.1718-.216.2579-.127.1527-.255.306-.385.4558-.09.1028-.091.2-.022.3079.007.0108.015.0216.022.0323.012.0185.025.037.037.0561.555.9039.772 1.8788.625 2.9319-.081.5781-.269 1.1172-.575 1.6159-.049.0796-.095.1608-.144.2456-.013.0237-.027.0477-.041.072zm-10.3016 2.708c-.3454-.0157-.6367-.1372-.8969-.3522-.4547-.3759-.7293-.8742-.9682-1.3962-.3028-.6614-.5046-1.356-.6227-2.0713-.0499-.3012-.0676-.6083-.0853-.9146-.0035-.06-.0069-.1202-.0107-.1801-.0091-.1503-.0065-.3013-.004-.4522.0011-.0614.0021-.1228.0023-.1841.0039-1.0102.2073-1.9799.5818-2.9175.1702-.426.3587-.841.6308-1.2131.1591-.218.3378-.4163.5651-.5697.3609-.2442.746-.3097 1.1691-.1979.3924.1036.7276.3054 1.0313.5637.4061.3456.7441.7541 1.0821 1.1624l.069.0835c.0538.0649.1082.1293.1626.1937.0873.1032.1745.2063.2588.3118.2154.2693.215.3028.0397.5968-.2018.3385-.3736.6903-.482 1.0717-.3425 1.2081-.1868 2.3504.4432 3.4331.0139.024.0291.0474.0443.0709.0089.0137.0177.0274.0264.0412.0027.0044.0055.0088.0082.0133.1237.2009.1296.2247-.0222.4099-.3096.3772-.6223.7523-.9439 1.1197-.2141.2447-.435.486-.6734.7064-.27.2494-.5694.4652-.9324.5671-.1064.0301-.2152.0517-.324.0734-.0494.0098-.0998.0197-.149.0303zm9.5696-5.1882c-.049-1.6082-1.3519-2.8715-2.9837-2.8694-1.654-.0034-3.0027 1.3168-2.9801 3.0075.0231 1.7233 1.3836 2.9518 3.0086 2.934 1.6903-.0187 3.0062-1.3623 2.9552-3.0721z" fill-rule="evenodd"/><path d="m97.4776 33.6906c-3.2257 4.394-6.4403 8.7727-9.666 13.1663h19.3334c-2.819-3.8399-5.628-7.6646-8.444-11.5z"/><path d="m87.7979 70.5617.0351.0433.0505.0615c.051.062.0941.1145.1341.1692.229.3116.4575.6236.6859.9355.1969.269.3938.5379.5911.8065.4286.5836.8575 1.1668 1.2864 1.75.4284.5826.8568 1.1652 1.285 1.7482 1.2377 1.6838 2.475 3.3681 3.7119 5.0524.2812.383.5619.7664.8425 1.1498.3033.4143.6065.8285.9104 1.2422.0097.0131.0189.0268.0282.0405.0366.0544.074.1097.1386.1328l9.6394-13.1319z"/><path d="m116.779 59.9811-6.635 9.0365h13.271z"/><path d="m84.8128 69.0201-6.6382-9.0386-6.6352 9.0386z"/><path d="m116.78 57.4285 6.627-9.0288h-13.257z"/><path d="m71.5433 48.3963c.0257.0355.0488.0678.0704.0979.0376.0523.0705.0981.104.1434l.666.905c.4435.6026.887 1.2051 1.3301 1.8081.5689.774 1.1375 1.5479 1.706 2.3223l.4216.5739.0013.0018c.4986.6788.9973 1.3576 1.4934 2.0384.1379.1893.2723.3809.4068.5727.1118.1594.2236.3189.3375.477.0168.0232.0481.0361.0786.0485l.0076.0032.0127.0054c.0064.0028.0125.0056.0184.0087l6.61-9.0063z"/><path d="m85.3963 67.2641v-17.1168l-6.2846 8.5556z"/><path d="m109.578 50.2128c.002-.008.005-.0172.008-.0278 1.494 2.0334 2.984 4.0612 4.476 6.0923l1.782 2.4256c-1.286 1.7506-2.569 3.4992-3.852 5.2465l-2.39 3.2548c-.002 0-.005.0002-.008.0005-.006.0005-.011.001-.014-.0014-.005-.0034-.007-.0127-.007-.0195-.002-5.6446-.003-11.2892-.004-16.9337 0-.0112.004-.0225.009-.0373z"/><path clip-rule="evenodd" d="m138.072 59.1275c0 22.4355-18.083 40.6232-40.3887 40.6232-22.3059 0-40.3884-18.1877-40.3884-40.6232 0-22.4356 18.0825-40.6232 40.3884-40.6232 22.3057 0 40.3887 18.1876 40.3887 40.6232zm-64.1317 11.4045-.0309-.0017-.0399-.0024c-.054-.0033-.1082-.0066-.1625-.0066-.9749 0-1.9498.0005-2.9246.001l-1.9556.0007c-.0387 0-.0775-.0023-.1255-.0052-.0282-.0017-.0595-.0037-.0958-.0054.035-.0529.0676-.1033.0989-.1518.0627-.0971.1206-.1867.1834-.2725.4195-.5737.8398-1.1467 1.2601-1.7198.3836-.5229.7671-1.0458 1.1501-1.5694.0985-.1346.1949-.2708.2913-.4069.1173-.1656.2348-.3315.3558-.4945.3715-.5009.7443-1.001 1.1171-1.5011l.0023-.0032c.3716-.4985.7438-.9978 1.1142-1.4972.1698-.2289.3357-.4608.5014-.6926.0865-.1209.1729-.2417.2599-.3622.1659-.2299.3329-.4595.4997-.6887l.0006-.0008.0379-.0521c.0523-.0718.1044-.1437.1565-.2157.1269-.1752.2539-.3505.3831-.5243.2009-.2703.4024-.5401.604-.81l.0021-.0028.0022-.0029c.1764-.2362.3531-.4727.5292-.7093.0187-.0251.0336-.053.0517-.0867l.017-.0315c.0046-.0085.0096-.0174.0149-.0267-.2857-.3858-.5714-.7713-.8571-1.1568l-.0246-.0332-.0131-.0176c-.6731-.9082-1.3458-1.8159-2.0162-2.7255-.9613-1.3045-1.9184-2.6116-2.875-3.9195-.6393-.874-1.2775-1.7489-1.9218-2.6324l-.0087-.0119c-.317-.4347-.6356-.8715-.9566-1.3113h17.3231c.0331-.0392.0667-.0776.1001-.1157.0732-.0837.1455-.1663.21-.2547.1253-.1715.2476-.3451.37-.5187.1113-.158.2227-.3159.3363-.4723.0934-.1288.1902-.2552.2871-.3815.0794-.1037.159-.2076.2366-.3126.1115-.1511.2206-.3039.3296-.4566.0507-.071.1015-.1421.1524-.2129l.438-.5964c.0478-.062.0961-.1236.1444-.1853.099-.1264.198-.2529.2932-.3822.6056-.822 1.2091-1.6456 1.8122-2.4693.441-.6019.8812-1.2047 1.3201-1.8079.2295-.3155.4585-.6315.6874-.9475.2291-.3163.4583-.6326.6881-.9483.1938-.2661.3888-.5311.584-.7962l.2558-.3478c.148-.2018.296-.4035.4435-.6053l.0891-.1153.0445-.0575c.1018-.1313.2036-.2627.3032-.3956l.1523-.2029c.2416-.3216.483-.6432.7199-.9682.2582-.3547.5144-.7108.7707-1.067l.0009-.0013.0019-.0026c.1816-.2525.3633-.505.5457-.757.052-.072.1073-.1418.1636-.2128l.0019-.0023.0007-.0009c.0268-.0338.0538-.0679.0807-.1026.1021.0364.1508.1134.1965.1856.0135.0214.0268.0423.0411.0617.8513 1.1499 1.6988 2.3032 2.5436 3.4577.285.3897.568.7808.851 1.1718.283.3912.567.7824.852 1.1722.295.403.592.8042.889 1.2053l.001.001c.206.2781.412.5562.617.8348.288.3903.575.7814.862 1.1724v.0011c.206.2798.411.5596.616.8392.286.3883.572.7765.858 1.1647.349.475.699.95 1.048 1.4252.472.6427.943 1.2862 1.413 1.9302.144.1969.286.3946.429.5924.096.1336.192.2673.289.4008.01.0142.023.0271.038.0427l.006.0062.009.0096.014.0145h17.354c-.289.423-.587.8239-.883 1.2209-.189.2533-.377.505-.56.7599-.403.5629-.814 1.1211-1.224 1.6791l-.001.0015-.001.0008-.21.2858c-.258.351-.517.7011-.777 1.0513-.227.3071-.454.6142-.681.9218-.429.5827-.856 1.1668-1.283 1.7509l-.001.0015-.144.197c-.174.2382-.348.4767-.522.7153-.307.4224-.615.8453-.925 1.2655-.328.4438-.66.8849-.997 1.3317-.154.2054-.31.412-.466.6206.043.0606.085.1219.127.1835.092.1322.184.2658.28.3968.322.438.644.8756.966 1.3132.322.4373.644.8745.965 1.3124.4.545.8 1.0904 1.199 1.6358.618.8429 1.235 1.6859 1.854 2.5275.554.7531 1.111 1.5046 1.667 2.2562l.003.0035c.29.3913.579.7827.869 1.1743.165.2228.329.4464.494.6718l.001.002.233.3172c-.016.0246-.032.0467-.045.0667-.015-.0015-.029-.0032-.043-.005l-.013-.0017c-.037-.0048-.073-.0094-.109-.0094-1.435-.0009-2.87-.0013-4.305-.0009-.033 0-.066.0034-.099.0068-.016.0017-.032.0034-.049.0047l-.048-.0012c-.041-.0011-.081-.0022-.122-.0022l-2.044-.0012c-1.704-.0011-3.409-.0022-5.113-.0022-1.633 0-3.266.0021-4.899.0055-.053 0-.106.0088-.158.0176-.024.0039-.047.0077-.07.0109h-.24l-11.525 15.6933c-.0123-.0137-.0246-.027-.0368-.0401l-.0339-.0362c-.0499-.0529-.0974-.1034-.1379-.159-.1676-.2301-.3337-.4612-.4999-.6924l-.0007-.0011c-.1444-.2009-.2889-.4018-.4343-.6021-.4965-.6835-.9942-1.3661-1.4932-2.0479l-.001-.0013c-.5366-.7332-1.0733-1.4664-1.6142-2.1966-.1171-.1578-.2378-.3129-.3585-.468l-.0006-.0008c-.1302-.1672-.2605-.3346-.386-.5052-.1519-.2064-.2996-.4158-.4473-.6251-.1356-.192-.2712-.3843-.41-.5741-.4617-.6315-.9254-1.2616-1.3891-1.8918l-.001-.0014-.0021-.0028c-.2663-.362-.5327-.7241-.7988-1.0864-.6636-.9035-1.3268-1.8075-1.9888-2.7123-.2687-.3674-.5364-.7353-.804-1.1033-.2008-.2761-.4017-.5523-.603-.8282-.0196-.0267-.0427-.0507-.0679-.0768-.0121-.0125-.0246-.0255-.0375-.0396h-.229c-.062-.0036-.1239-.0082-.1859-.0128-.1346-.0099-.2693-.0199-.404-.0199-2.9237-.0021-5.847-.0017-8.7707-.0008-.5105 0-1.0211.0012-1.5317.0024-.2912.0007-.5825.0013-.8738.0018z" fill-rule="evenodd"/><path d="m52.6029 71.9917c2.1335 6.7849 5.6268 12.7658 10.4634 18.0009-.1443.1851-.279.3714-.4282.5449-.3363.389-.6799.7712-1.0205 1.1571-.3527.3999-.6957.8094-1.06 1.1984-.5118.5467-1.0461 1.0715-1.6644 1.5017-.6671.4636-1.4098.5571-2.1987.4351-.9157-.1414-1.7241-.537-2.4979-1.0182-1.2994-.8082-2.4076-1.8397-3.4415-2.9549-1.1021-1.1887-2.0616-2.4841-2.8914-3.8754-.8638-1.449-1.5072-2.9926-2.0147-4.5957-.3271-1.0339-.58-2.0855-.7402-3.1594-.109-.73-.184-1.4599-.17-2.1971.0116-.5953.0811-1.185.2419-1.759.1682-.6008.4399-1.1456.9321-1.5576.3631-.304.7969-.4697 1.2361-.6177.8682-.2925 1.7619-.4885 2.6593-.6662.7707-.1523 1.5462-.281 2.3199-.4181.0792-.0139.1609-.0109.2748-.0188z"/><path d="m51.49 47.6272c-1.5726 6.9363-1.5656 13.8627-.0225 20.8211-.2179.0872-.4281.1803-.6444.2551-.4864.1668-.9757.324-1.4642.486-.5061.1679-1.0087.3491-1.5193.5017-.7174.2147-1.4433.3992-2.1941.4595-.8098.0647-1.4985-.2285-2.1188-.7311-.7199-.5831-1.2193-1.332-1.6455-2.1373-.7158-1.3525-1.154-2.8017-1.4858-4.2858-.3537-1.5819-.5305-3.1843-.547-4.8041-.0169-1.6869.2045-3.3445.5731-4.9851.2379-1.058.5489-2.0938.9512-3.1024.2732-.6856.576-1.354.9593-1.9839.3097-.5085.6666-.9831 1.0946-1.3981.4477-.4343.9568-.7683 1.5895-.8764.4668-.0799.925-.0046 1.379.0886.8974.1844 1.7682.4651 2.6331.7633.7425.2564 1.4774.5357 2.2149.8068.0755.0278.1445.0715.2469.1221z"/><path d="m52.565 43.9801c-1.6376-.273-3.2788-.5339-4.8701-1.0236-.4021-.1238-.8072-.2603-1.1807-.4496-.7353-.3732-1.1539-1.0188-1.3957-1.7851-.1426-.4515-.2059-.9175-.2577-1.3889-.0707-.6389-.0299-1.2736.0353-1.9028.0658-.6365.195-1.2688.332-1.895.4168-1.9022 1.1247-3.6988 2.0062-5.433.661-1.3003 1.475-2.4986 2.4052-3.6169.5362-.6444 1.1009-1.27 1.6949-1.8616 1.0192-1.0139 2.1201-1.9343 3.3763-2.6515.5684-.3246 1.1576-.611 1.8052-.7518.6518-.142 1.3019-.1917 1.9318.091.4569.2051.8432.5182 1.2063.8555 1.032.96 1.9477 2.0279 2.8536 3.1037.1816.216.3607.4344.5483.6601-.7621.8974-1.5346 1.7748-2.2706 2.6819-.7365.9084-1.4341 1.8482-2.0878 2.8197-.658.9769-1.2946 1.9653-1.8874 2.9835-.5854 1.0066-1.1453 2.0272-1.6376 3.0811-.4916 1.0522-.9644 2.1146-1.3963 3.1922-.432 1.0764-.803 2.1765-1.2105 3.2923z"/><path d="m83.8292 12.8859c-3.3891 1.0455-6.5845 2.4514-9.6264 4.2043-3.0577 1.7621-5.879 3.8463-8.4901 6.2351-.3497-.2803-.6879-.5333-1.0053-.8094-.7249-.6298-1.4487-1.2621-2.156-1.9119-.4618-.4241-.8742-.8968-1.2483-1.4023-.2638-.3567-.3972-.759-.4752-1.1898-.1273-.7021.0627-1.3561.2955-2.0005.3637-1.0054.9638-1.8762 1.6242-2.7062.7444-.9369 1.5925-1.7766 2.4966-2.5594 1.0472-.90707 2.167-1.7171 3.3568-2.43066 1.966-1.17956 4.0885-1.97139 6.3079-2.51566.7622-.18688 1.5334-.34707 2.3224-.39318.4843-.02852.9687-.10012 1.4518-.09284.7365.01153 1.4688.08556 2.1737.33615.7731.27487 1.3385.75725 1.6577 1.52177.2985.71417.5002 1.45685.6671 2.20924.1694.76268.3247 1.52908.4715 2.29658.075.392.1164.79.1761 1.2087z"/><path d="m83.8549 103.074c-.145.786-.2705 1.526-.421 2.262-.1523.746-.3162 1.489-.5008 2.228-.0969.387-.2382.764-.3783 1.139-.3406.909-1.0345 1.455-1.9306 1.736-.9328.293-1.8972.389-2.8756.275-.3808-.044-.7627-.084-1.1435-.129-.8121-.095-1.6065-.283-2.3876-.515-2.5593-.756-4.9615-1.841-7.1127-3.437-.7968-.591-1.5486-1.234-2.2748-1.911-.9212-.859-1.7515-1.793-2.493-2.807-.5909-.808-1.0759-1.673-1.3543-2.6425-.1907-.6645-.2321-1.3228.0256-1.9811.1688-.4308.4533-.7858.7585-1.1207.6141-.6742 1.2739-1.3034 1.9666-1.8962.6445-.5521 1.3013-1.0903 1.9726-1.6516 2.6045 2.3943 5.438 4.4749 8.5012 6.2424 3.0425 1.7557 6.2439 3.1557 9.6477 4.2087z"/><path d="m130.242 23.2672c-2.631-2.4156-5.473-4.4919-8.547-6.2455-3.05-1.7402-6.249-3.1485-9.639-4.1764.038-.2676.068-.5339.116-.7973.136-.7299.269-1.4605.421-2.18736.174-.8337.393-1.65708.681-2.46044.333-.93139.979-1.54847 1.919-1.87187.491-.16868.996-.26577 1.509-.29065.75-.03579 1.502-.04247 2.247.0625 1.179.16565 2.336.43323 3.467.80518 1.233.40532 2.431.89984 3.586 1.49143 1.426.72995 2.739 1.62553 3.963 2.65521.917.7706 1.776 1.5988 2.565 2.4969.827.9429 1.56 1.9531 2.077 3.1024.252.56.431 1.1455.456 1.7656.028.6614-.196 1.2421-.594 1.7627-.426.5564-.912 1.0588-1.438 1.5193-.844.7397-1.7 1.4672-2.553 2.1984-.067.0582-.145.1049-.236.1699z"/><path d="m130.25 92.6919c.25.2021.471.3768.688.5552 1.016.8367 2.019 1.6886 2.926 2.6443.334.3513.664.7099.898 1.1389.262.4793.36.9945.319 1.5382-.082 1.0824-.534 2.0255-1.105 2.9265-.531.84-1.162 1.604-1.852 2.315-1.656 1.708-3.528 3.143-5.623 4.279-1.392.754-2.866 1.315-4.386 1.76-.83.244-1.671.445-2.524.59-.418.071-.842.109-1.264.139-.475.032-.951.061-1.427.051-.657-.014-1.303-.125-1.924-.352-.804-.295-1.361-.828-1.666-1.637-.313-.829-.535-1.682-.716-2.546-.176-.845-.325-1.696-.482-2.545-.025-.137-.027-.278-.041-.44 6.817-2.124 12.873-5.5866 18.179-10.4171z"/><path d="m143.424 43.948c-2.171-6.8249-5.687-12.8252-10.544-18.0707.116-.1408.215-.2658.32-.3866.589-.6801 1.167-1.3694 1.772-2.035.592-.6511 1.207-1.2815 1.915-1.8131.648-.486 1.367-.6425 2.168-.5364.942.1244 1.773.5122 2.567 1.0018 1.512.9332 2.783 2.1371 3.94 3.4732.623.719 1.199 1.4701 1.737 2.2517 1.07 1.5545 1.886 3.2365 2.504 5.0173.377 1.0904.687 2.1983.889 3.333.097.543.151 1.0946.204 1.6443.037.3908.067.7858.054 1.1772-.026.7439-.118 1.4793-.408 2.1776-.298.7172-.798 1.2178-1.53 1.4969-.801.3052-1.625.5225-2.461.7015-.56.1201-1.121.2378-1.684.3404-.475.0867-.953.151-1.443.2269z"/><path d="m132.893 90.0753c4.849-5.2449 8.378-11.2513 10.534-18.0738.3.0437.598.0765.893.1317.812.1529 1.626.2979 2.431.4794.754.1698 1.502.3677 2.228.6462.944.3628 1.498 1.0606 1.794 1.9859.16.4982.257 1.0121.251 1.5406-.005.4951.026.9927-.013 1.4848-.042.5297-.131 1.0569-.227 1.5806-.353 1.9137-1.02 3.7231-1.859 5.4736-.721 1.5048-1.621 2.8979-2.69 4.1794-1.262 1.5121-2.652 2.8901-4.287 4.0077-.66.4515-1.363.8198-2.115 1.0934-.527.1924-1.077.267-1.637.2342-.567-.0333-1.032-.31-1.47-.648-.748-.5788-1.385-1.2718-2.014-1.9702-.575-.6383-1.12-1.3033-1.677-1.9574-.045-.0528-.083-.111-.141-.1887z"/><path d="m144.526 68.3351c1.499-6.9839 1.474-13.9503-.148-20.9191.28-.1152.554-.2391.836-.3419.776-.282 1.55-.5721 2.336-.8264.735-.2383 1.479-.449 2.246-.5795.997-.1691 1.829.1493 2.556.7942.391.3473.736.7401 1.001 1.1976.248.4285.528.841.745 1.2843.234.4772.426.9758.61 1.4754.672 1.8263 1.021 3.7231 1.191 5.6568.146 1.6623.082 3.3195-.185 4.967-.315 1.944-.809 3.8381-1.646 5.6331-.338.7249-.755 1.4001-1.262 2.0184-.356.4344-.791.779-1.289 1.0358-.505.2604-1.046.2595-1.595.1917-.939-.1164-1.84-.3882-2.737-.6686-.82-.2561-1.628-.5507-2.441-.8293-.065-.0225-.128-.0534-.217-.0907z"/><path d="m108.521 11.3634c-3.473-.7192-6.951-1.0293-10.4608-.9614-3.5284.0683-7.0052.5329-10.4448 1.3656-.1711-.4142-.3452-.799-.4901-1.1939-.3311-.90147-.6601-1.80444-.9661-2.7149-.1999-.59429-.3332-1.2073-.417-1.83049-.0589-.43977.0183-.85651.1578-1.27149.2272-.67636.7092-1.1576 1.224-1.60976.8036-.70521 1.7493-1.1784 2.7282-1.58687 1.1041-.46145 2.252-.787908 3.4216-1.037361 1.3549-.289339 2.7265-.4586651 4.113-.5096848 2.2911-.0847585 4.5322.2456378 6.7392.8396128.757.203983 1.51.435763 2.224.775983.438.20868.896.37963 1.316.61908.64.36543 1.245.78355 1.742 1.34311.545.61374.807 1.30902.718 2.13271-.083.76957-.265 1.5174-.482 2.25697-.219.74979-.453 1.496-.695 2.23919-.123.3795-.279.7481-.428 1.1436z"/><path d="m87.4905 104.203c3.4519.814 6.9192 1.22 10.4299 1.248 3.5286.029 7.0176-.339 10.4786-1.077.16.418.323.808.457 1.207.306.91.61 1.822.891 2.74.183.6.3 1.216.366 1.841.047.442-.041.856-.192 1.267-.246.67-.741 1.138-1.268 1.576-.823.682-1.781 1.129-2.771 1.511-1.116.431-2.273.725-3.449.943-1.362.252-2.7378.383-4.1252.396-2.2925.022-4.5238-.37-6.7133-1.025-.7518-.224-1.498-.477-2.2017-.837-.4321-.22-.886-.404-1.2989-.655-.6293-.383-1.2233-.817-1.7043-1.39-.5275-.629-.7707-1.331-.6589-2.152.1042-.767.3063-1.509.5434-2.243.2401-.743.4942-1.483.7562-2.219.1339-.376.2997-.74.4602-1.131z"/></g></svg>