<svg width="41" height="41" viewBox="0 0 41 41" fill="none" xmlns="http://www.w3.org/2000/svg">
<circle cx="20.5" cy="20.5" r="20.5" fill="black"/>
<path d="M24.7306 20.7108C28.079 22.2647 30.2297 24.781 30.918 28.4483C31.0262 29.0228 31.0281 29.6216 31.0467 30.2092C31.0672 30.8397 30.7389 31.209 30.1066 31.2501C29.4649 31.2892 29.1236 30.9106 29.0266 30.323C28.9426 29.8044 28.9687 29.2653 28.868 28.7524C28.0472 24.5702 24.2699 21.6472 20.127 21.9718C15.3946 22.3411 12.2141 25.4563 11.9978 29.9499C11.9623 30.6942 11.7403 31.2706 10.8916 31.2463C10.0652 31.2221 9.91602 30.6326 9.94587 29.935C10.1119 25.8778 12.0798 22.9679 15.5997 21.0447C15.8161 20.9272 16.0437 20.8265 16.2713 20.7164C11.5277 16.9279 12.798 11.4829 15.3815 9.05611C18.2728 6.34388 22.8765 6.36067 25.7398 9.19228C28.9687 12.3858 28.5975 16.6649 24.7325 20.7127L24.7306 20.7108ZM25.8555 14.5235C25.8722 11.524 23.5088 9.1102 20.5261 9.08035C17.5714 9.05051 15.1465 11.4792 15.1427 14.4712C15.139 17.4353 17.48 19.821 20.4254 19.8528C23.4212 19.8845 25.8387 17.5136 25.8555 14.5253V14.5235Z" fill="white"/>
</svg>
