<svg width="20" height="20" viewBox="0 0 20 20" fill="none" xmlns="http://www.w3.org/2000/svg">
<path d="M10.0557 1.59974C10.2752 1.2813 10.2913 0.864843 10.0972 0.530332C9.90311 0.195823 9.53351 0.003235 9.14813 0.035789C4.02351 0.468679 0 4.76392 0 9.99996C0 15.5228 4.47715 20 10 20C15.236 20 19.5313 15.9764 19.9642 10.8518C19.9967 10.4664 19.8041 10.0968 19.4696 9.90273C19.1351 9.70862 18.7187 9.7248 18.4002 9.94428C17.4341 10.6102 16.2641 11 15 11C11.6863 11 9 8.31366 9 4.99996C9 3.73589 9.38979 2.56587 10.0557 1.59974Z" fill="black"/>
</svg>
