<svg width="22" height="22" viewBox="0 0 22 22" fill="none" xmlns="http://www.w3.org/2000/svg">
<path d="M6.75 3.75C7.30228 3.75 7.75 3.30228 7.75 2.75V1.75C7.75 1.19772 7.30228 0.75 6.75 0.75H3.25C1.86929 0.75 0.75 1.86929 0.75 3.25V19.25C0.75 20.6307 1.86929 21.75 3.25 21.75H6.75C7.30228 21.75 7.75 21.3023 7.75 20.75V19.75C7.75 19.1977 7.30228 18.75 6.75 18.75H3.75V3.75H6.75Z" fill="black"/>
<path d="M15.25 7.25003C15.25 6.84557 15.4936 6.48093 15.8673 6.32615C16.241 6.17137 16.6711 6.25692 16.9571 6.54292L20.9571 10.5429C21.3476 10.9334 21.3476 11.5666 20.9571 11.9571L16.9571 15.9571C16.6711 16.2431 16.241 16.3287 15.8673 16.1739C15.4936 16.0191 15.25 15.6545 15.25 15.25V12.75H7.25C6.69771 12.75 6.25 12.3023 6.25 11.75V10.75C6.25 10.1977 6.69772 9.75 7.25 9.75H15.25V7.25003Z" fill="black"/>
</svg>
