<svg width="43" height="43" viewBox="0 0 43 43" fill="none" xmlns="http://www.w3.org/2000/svg">
<path fill-rule="evenodd" clip-rule="evenodd" d="M25.2692 17.9977H17.5442C17.5303 18.1879 17.5359 25.4562 17.5505 25.523H25.2178C25.2286 25.523 25.2395 25.5219 25.2503 25.5208L25.2564 25.5202C25.258 25.5201 25.2596 25.5187 25.2611 25.5173L25.2625 25.516L25.2664 25.5125L25.2692 25.5098V17.9977ZM20.5133 23.0257C20.4785 23.0066 20.4431 22.9873 20.4067 22.9681L20.3996 22.9728C20.394 22.9765 20.3881 22.9804 20.3827 22.9849C20.3255 23.0326 20.2679 23.08 20.2104 23.1274C20.0745 23.2393 19.9387 23.3512 19.8068 23.4676C19.6747 23.5842 19.5623 23.7198 19.4938 23.8853C19.4501 23.9907 19.4238 24.0989 19.4462 24.2151C19.4768 24.3739 19.5702 24.4889 19.6935 24.5853C19.8972 24.7447 20.1318 24.8422 20.3759 24.9186C20.6271 24.9974 20.8838 25.0453 21.1478 25.0634C21.4027 25.081 21.6542 25.0651 21.9042 25.0238C22.1505 24.983 22.3891 24.9112 22.6185 24.8115C22.7799 24.7415 22.9337 24.6587 23.0677 24.5432C23.1616 24.4624 23.233 24.3665 23.2665 24.2465C23.3045 24.1104 23.2735 23.9817 23.2142 23.8587C23.1611 23.7487 23.088 23.6519 23.0005 23.5668C22.8057 23.3775 22.5954 23.2061 22.3851 23.0347L22.3372 22.9957C22.3046 22.9689 22.2789 22.9791 22.247 22.9993C21.943 23.1915 21.6135 23.2876 21.2505 23.2624C21.0738 23.2501 20.9034 23.2143 20.7424 23.143C20.665 23.1086 20.5905 23.0679 20.5133 23.0257ZM22.306 20.3859C21.6777 19.9836 21.0517 19.983 20.4187 20.382C20.3943 20.3627 20.3694 20.3432 20.3442 20.3235C20.2883 20.2798 20.2308 20.2348 20.1752 20.1881L20.1251 20.1459C20.0033 20.0437 19.8815 19.9414 19.7648 19.8337C19.6429 19.7213 19.54 19.5922 19.4792 19.4355C19.396 19.2214 19.4432 19.0329 19.5961 18.8665C19.7044 18.7487 19.8403 18.6695 19.9805 18.5974C20.1896 18.49 20.4126 18.4214 20.6399 18.3649C20.9386 18.2905 21.2425 18.2734 21.5478 18.2898C22.0516 18.3168 22.5267 18.4445 22.9574 18.7158C23.0508 18.7747 23.1292 18.8487 23.1907 18.9391C23.2951 19.0927 23.3073 19.2575 23.2436 19.4307C23.1947 19.5635 23.1138 19.6753 23.0206 19.7793C22.9206 19.8907 22.8058 19.9863 22.6911 20.0817L22.6359 20.1276C22.5609 20.1906 22.4846 20.2524 22.4079 20.3135C22.3858 20.3311 22.3625 20.3472 22.3385 20.3637C22.3278 20.3711 22.3168 20.3782 22.306 20.3859ZM22.6786 22.5806L22.6555 22.6207L22.6821 22.6567C22.6994 22.6801 22.7149 22.701 22.7313 22.721C22.7563 22.7514 22.781 22.7818 22.8058 22.8123C22.8787 22.902 22.9518 22.9919 23.0283 23.0785C23.1153 23.177 23.2051 23.2743 23.3027 23.3622C23.4024 23.452 23.5165 23.5225 23.6481 23.5616C23.8481 23.6208 24.025 23.5828 24.1805 23.4448C24.2564 23.3774 24.3187 23.2985 24.3702 23.2115C24.5993 22.8247 24.7217 22.4026 24.7551 21.9588C24.7761 21.6799 24.771 21.3987 24.717 21.1198C24.6611 20.8316 24.5777 20.5538 24.4452 20.292C24.3744 20.1518 24.2942 20.0163 24.1735 19.9105C24.0735 19.8229 23.9599 19.7612 23.8257 19.763C23.7123 19.7646 23.6017 19.7937 23.5024 19.8546C23.3737 19.9337 23.2604 20.0312 23.1605 20.1436C23.097 20.2151 23.0354 20.2881 22.9738 20.3611L22.9187 20.4262C22.8923 20.4575 22.8661 20.489 22.8398 20.5204C22.7934 20.5761 22.7468 20.632 22.6991 20.6867C22.6663 20.7242 22.666 20.7597 22.6913 20.7991L22.6992 20.8108C22.7017 20.8145 22.7042 20.8182 22.7067 20.8219C22.7087 20.825 22.7107 20.8281 22.7127 20.8313C22.9152 21.1612 22.9946 21.517 22.9409 21.9013C22.9114 22.1123 22.8426 22.309 22.731 22.491C22.7132 22.52 22.6963 22.5497 22.6786 22.5806ZM18.904 23.5952C18.7779 23.5895 18.6716 23.5451 18.5767 23.4667C18.4108 23.3295 18.3105 23.1477 18.2234 22.9571C18.1128 22.7158 18.0392 22.4623 17.9961 22.2012C17.9779 22.0913 17.9714 21.9792 17.965 21.8674L17.9611 21.8017C17.9578 21.7469 17.9587 21.6918 17.9596 21.6367C17.96 21.6143 17.9604 21.5919 17.9605 21.5695C17.9619 21.2009 18.0361 20.8469 18.1728 20.5048C18.2349 20.3493 18.3037 20.1979 18.403 20.0621C18.461 19.9825 18.5263 19.9101 18.6092 19.8542C18.7409 19.765 18.8815 19.7412 19.0359 19.7819C19.1791 19.8198 19.3014 19.8934 19.4122 19.9877C19.5604 20.1138 19.6838 20.2629 19.8071 20.4119L19.8323 20.4423C19.8519 20.466 19.8718 20.4895 19.8917 20.513C19.9235 20.5507 19.9553 20.5883 19.9861 20.6268C20.0647 20.7251 20.0646 20.7373 20.0006 20.8446C19.927 20.9682 19.8642 21.0965 19.8247 21.2357C19.6997 21.6766 19.7565 22.0935 19.9864 22.4886C19.9915 22.4974 19.9971 22.5059 20.0026 22.5145C20.0069 22.5211 20.0112 22.5277 20.0152 22.5344C20.0604 22.6077 20.0625 22.6164 20.0071 22.684C19.8941 22.8216 19.78 22.9585 19.6627 23.0926C19.5845 23.1819 19.5039 23.27 19.4169 23.3504C19.3184 23.4414 19.2091 23.5202 19.0766 23.5574C19.0378 23.5684 18.9981 23.5763 18.9584 23.5842C18.9403 23.5877 18.922 23.5913 18.904 23.5952ZM22.3962 21.7017C22.3785 21.1148 21.903 20.6538 21.3074 20.6546C20.7038 20.6533 20.2117 21.1351 20.2199 21.7521C20.2283 22.3811 20.7248 22.8294 21.3179 22.8229C21.9347 22.8161 22.4151 22.3257 22.3962 21.7017Z" fill="#EAEDFD"/>
<path d="M21.4054 12.6258L17.8779 17.4308H24.9336L21.4054 12.6258Z" fill="#EAEDFD"/>
<path d="M17.8729 26.0817C17.8842 26.0958 17.8945 26.1084 17.9041 26.12C17.9227 26.1426 17.9385 26.1618 17.953 26.1817C18.0367 26.2955 18.1202 26.4095 18.2036 26.5235C18.2753 26.6214 18.3473 26.7197 18.4191 26.8175L19.3575 28.0941C19.8092 28.7086 20.2607 29.3233 20.7121 29.9379C20.8147 30.0777 20.9171 30.2175 21.0195 30.3574L21.0207 30.359C21.131 30.5097 21.2413 30.6604 21.3519 30.8109C21.3554 30.8157 21.3588 30.8207 21.3622 30.8257C21.3755 30.8456 21.3891 30.8657 21.4127 30.8741L24.9306 26.0817H17.8729Z" fill="#EAEDFD"/>
<path d="M28.4493 22.2204L26.028 25.5182H30.8712L28.4493 22.2204Z" fill="#EAEDFD"/>
<path d="M16.7835 25.5191L14.3609 22.2206L11.9394 25.5191H16.7835Z" fill="#EAEDFD"/>
<path d="M28.4499 21.2889L30.8681 17.9938H26.0301L28.4499 21.2889Z" fill="#EAEDFD"/>
<path d="M11.9408 17.9926L11.9666 18.0283C11.9802 18.0473 11.9923 18.0641 12.0045 18.0806L12.2474 18.4107C12.4093 18.6307 12.5712 18.8506 12.733 19.0708C12.9406 19.3532 13.1481 19.6357 13.3556 19.9183L13.5095 20.1278C13.6916 20.3757 13.8737 20.6236 14.0549 20.8723C14.1052 20.9414 14.1543 21.0113 14.2034 21.0813C14.2442 21.1395 14.285 21.1977 14.3265 21.2554C14.3327 21.2639 14.3441 21.2685 14.3552 21.2731C14.3601 21.2751 14.365 21.2771 14.3693 21.2794L16.7816 17.9926H11.9408Z" fill="#EAEDFD"/>
<path d="M16.9964 24.8783V18.6316L14.7029 21.7539L16.9964 24.8783Z" fill="#EAEDFD"/>
<path d="M25.8225 18.6517L25.8244 18.6453L28.1081 21.7539L25.8303 24.8564L25.8272 24.8566C25.8251 24.8568 25.8232 24.857 25.822 24.8561C25.821 24.8554 25.8203 24.8539 25.82 24.8523C25.8197 24.8512 25.8195 24.85 25.8195 24.849C25.8189 22.789 25.8183 20.7291 25.818 18.6691C25.818 18.665 25.8194 18.6609 25.8212 18.6555L25.8225 18.6517Z" fill="#EAEDFD"/>
<path fill-rule="evenodd" clip-rule="evenodd" d="M36.2199 21.9089C36.2199 30.0966 29.6208 36.7341 21.4804 36.7341C13.34 36.7341 6.74087 30.0966 6.74087 21.9089C6.74087 13.7212 13.34 7.08369 21.4804 7.08369C29.6208 7.08369 36.2199 13.7212 36.2199 21.9089ZM12.8156 26.0709L12.7898 26.0694C12.7701 26.0682 12.7503 26.067 12.7305 26.067C12.3746 26.067 12.0187 26.0672 11.6628 26.0673L10.9495 26.0676C10.9354 26.0676 10.9212 26.0668 10.9037 26.0657C10.8935 26.0651 10.8818 26.0644 10.8687 26.0637C10.8815 26.0444 10.8934 26.026 10.9048 26.0083C10.9277 25.9729 10.9488 25.9402 10.9718 25.9089C11.1249 25.6994 11.2783 25.4902 11.4318 25.281L11.4348 25.277C11.5735 25.0878 11.7128 24.898 11.8513 24.7085C11.8873 24.6594 11.9225 24.6097 11.9576 24.56C12.0005 24.4995 12.0433 24.4391 12.0875 24.3796C12.2225 24.1975 12.358 24.0157 12.4935 23.8339L12.495 23.8319C12.631 23.6494 12.767 23.467 12.9026 23.2842C12.9646 23.2007 13.025 23.1161 13.0855 23.0316C13.117 22.9875 13.1487 22.9431 13.1805 22.8992C13.241 22.8153 13.302 22.7315 13.3629 22.6478L13.3769 22.6286L13.4339 22.55C13.4802 22.4861 13.5267 22.4219 13.5738 22.3585C13.6474 22.2595 13.7213 22.1606 13.7951 22.0617C13.8598 21.9752 13.9244 21.8886 13.9889 21.802C13.9958 21.7928 14.0012 21.7827 14.0078 21.7703C14.0112 21.7639 14.015 21.7569 14.0194 21.7491L13.6954 21.3118C13.4489 20.9792 13.2026 20.6468 12.9571 20.3138C12.6063 19.8377 12.257 19.3607 11.9078 18.8834C11.6753 18.5654 11.4431 18.2471 11.2087 17.9256L10.8542 17.4398H17.1762C17.1883 17.4255 17.2005 17.4115 17.2127 17.3975C17.2394 17.367 17.2658 17.3369 17.2894 17.3046C17.335 17.242 17.3797 17.1787 17.4243 17.1154C17.4649 17.0578 17.5057 17 17.5471 16.9429C17.5812 16.8959 17.6165 16.8498 17.6519 16.8037C17.6808 16.7659 17.7099 16.728 17.7382 16.6896C17.7789 16.6345 17.8187 16.5788 17.8584 16.5231L17.9141 16.4453L18.074 16.2276C18.0914 16.205 18.1091 16.1825 18.1267 16.16C18.1628 16.1139 18.199 16.0677 18.2337 16.0205C18.4547 15.7206 18.675 15.42 18.8951 15.1194C19.056 14.8997 19.2166 14.6797 19.3768 14.4596C19.4606 14.3444 19.5442 14.229 19.6278 14.1136C19.7114 13.9982 19.795 13.8829 19.8788 13.7677C19.9496 13.6705 20.0209 13.5737 20.0921 13.4768L20.1853 13.3503L20.3471 13.1293L20.3959 13.0663C20.433 13.0183 20.4701 12.9704 20.5065 12.9219L20.562 12.848C20.6502 12.7306 20.7384 12.6132 20.8248 12.4945C20.9192 12.3648 21.0129 12.2346 21.1066 12.1044C21.173 12.0121 21.2396 11.9196 21.3063 11.8275C21.3253 11.801 21.3456 11.7755 21.3662 11.7495C21.3762 11.7369 21.3863 11.7241 21.3964 11.7112C21.4336 11.7245 21.4514 11.7525 21.4681 11.7789C21.473 11.7867 21.4779 11.7943 21.4831 11.8014C21.7938 12.2211 22.103 12.6419 22.4112 13.0633C22.5153 13.2055 22.6186 13.3483 22.722 13.491C22.8252 13.6335 22.9288 13.7767 23.0327 13.9187C23.1404 14.0658 23.2489 14.2123 23.3575 14.3587L23.3584 14.36C23.4334 14.4611 23.5083 14.5623 23.583 14.6636C23.6865 14.8042 23.7898 14.945 23.8931 15.0858L23.8944 15.0876L24.1223 15.3981L24.4348 15.8227C24.5626 15.9962 24.6904 16.1697 24.8179 16.3433C24.9902 16.5778 25.1621 16.8127 25.3336 17.0477C25.386 17.1196 25.438 17.1918 25.49 17.2639L25.5956 17.4102C25.5993 17.4154 25.6039 17.4201 25.6094 17.4258C25.6125 17.429 25.616 17.4326 25.6198 17.4368H31.9532C31.8479 17.5912 31.7389 17.7375 31.6309 17.8824C31.562 17.9748 31.4935 18.0667 31.4267 18.1597C31.2792 18.3653 31.1292 18.5693 30.9793 18.7731L30.9025 18.8776C30.8083 19.0057 30.7137 19.1335 30.6191 19.2613C30.5361 19.3734 30.4532 19.4854 30.3705 19.5977C30.2139 19.8103 30.0581 20.0234 29.9023 20.2365L29.8492 20.3091C29.7856 20.3961 29.7222 20.4833 29.6587 20.5704C29.5466 20.7246 29.4344 20.8787 29.3211 21.032C29.2013 21.1939 29.0802 21.3549 28.9575 21.518C28.9011 21.593 28.8444 21.6684 28.7874 21.7445C28.8028 21.7666 28.8183 21.789 28.8338 21.8114C28.8671 21.8597 28.9008 21.9084 28.9358 21.9562C29.0531 22.1161 29.1707 22.2757 29.2882 22.4353C29.4058 22.595 29.5234 22.7546 29.6406 22.9144C29.7866 23.1134 29.9324 23.3125 30.0782 23.5115L30.0794 23.5131C30.3043 23.8202 30.5293 24.1273 30.7548 24.4338C30.9574 24.7092 31.1608 24.9839 31.3642 25.2587L31.6812 25.687C31.7416 25.7687 31.8017 25.8506 31.8623 25.9332L31.9471 26.0487L31.9304 26.073C31.9235 26.0723 31.9167 26.0715 31.9101 26.0706C31.8965 26.0688 31.8835 26.0672 31.8703 26.0672C31.3466 26.0668 30.8228 26.0667 30.2992 26.0668C30.2873 26.0668 30.2752 26.0681 30.2632 26.0693L30.2527 26.0704L30.2453 26.071L30.2276 26.0706L30.2 26.0699L30.1832 26.0698L29.4381 26.0693C28.816 26.0689 28.1934 26.0686 27.5712 26.0686C26.9753 26.0686 26.3793 26.0693 25.7833 26.0706C25.7641 26.0706 25.7448 26.0738 25.7256 26.077L25.7091 26.0797L25.7002 26.081H25.6127L21.4067 31.8081L21.3965 31.797L21.3809 31.7803C21.3627 31.761 21.3453 31.7426 21.3305 31.7223C21.2693 31.6383 21.2087 31.5539 21.148 31.4694C21.0953 31.3961 21.0424 31.3226 20.9894 31.2494C20.8082 31 20.6265 30.7509 20.4444 30.5021L20.4437 30.5012C20.248 30.2338 20.0523 29.9663 19.855 29.7C19.8122 29.6423 19.7681 29.5857 19.724 29.5291C19.6765 29.468 19.6289 29.4068 19.583 29.3445C19.5276 29.2692 19.4738 29.1929 19.4199 29.1165C19.3704 29.0465 19.3208 28.9761 19.2702 28.9069C19.1012 28.6758 18.9316 28.4452 18.7619 28.2147C18.6648 28.0826 18.5676 27.9506 18.4706 27.8185C18.2284 27.4887 17.9864 27.1588 17.7448 26.8286C17.6467 26.6945 17.549 26.5602 17.4513 26.4259C17.378 26.3252 17.3048 26.2244 17.2313 26.1237C17.2242 26.114 17.2157 26.1053 17.2066 26.0958L17.2006 26.0895L17.1928 26.0813H17.1093C17.0866 26.0799 17.064 26.0783 17.0414 26.0766C16.9923 26.073 16.9431 26.0693 16.894 26.0693C15.827 26.0686 14.7602 26.0687 13.6932 26.069C13.5078 26.069 13.3225 26.0695 13.1371 26.0699L12.8156 26.0709Z" fill="#EAEDFD"/>
<path d="M5.02848 26.6036C5.80709 29.0797 7.08195 31.2624 8.84706 33.173C8.79436 33.2405 8.74523 33.3085 8.69076 33.3718C8.56803 33.5138 8.44263 33.6533 8.31835 33.7941C8.18962 33.94 8.06444 34.0895 7.93149 34.2314C7.74473 34.431 7.54974 34.6225 7.32407 34.7795C7.08062 34.9487 6.80959 34.9828 6.52167 34.9383C6.1875 34.8867 5.89247 34.7423 5.6101 34.5667C5.13587 34.2717 4.73144 33.8953 4.35414 33.4883C3.95194 33.0545 3.60177 32.5817 3.29895 32.074C2.98368 31.5452 2.7489 30.9819 2.56369 30.3968C2.4443 30.0195 2.35203 29.6358 2.29356 29.2438C2.25376 28.9774 2.22641 28.711 2.23153 28.442C2.23575 28.2248 2.2611 28.0095 2.31979 27.8001C2.38116 27.5808 2.48032 27.382 2.65996 27.2316C2.79247 27.1207 2.95077 27.0602 3.11108 27.0062C3.4279 26.8995 3.75407 26.8279 4.08156 26.7631C4.36281 26.7075 4.64584 26.6605 4.92821 26.6105C4.95711 26.6054 4.9869 26.6065 5.02848 26.6036Z" fill="#EAEDFD"/>
<path d="M4.62234 17.712C4.04842 20.2433 4.05098 22.7711 4.61413 25.3105C4.5346 25.3423 4.45792 25.3763 4.37897 25.4036C4.20147 25.4645 4.02289 25.5219 3.8446 25.581C3.6599 25.6422 3.4765 25.7084 3.29016 25.764C3.02835 25.8424 2.76344 25.9097 2.48941 25.9318C2.19389 25.9554 1.94255 25.8484 1.71619 25.6649C1.45345 25.4521 1.27122 25.1788 1.11567 24.885C0.854424 24.3913 0.694526 23.8625 0.57345 23.3209C0.444348 22.7436 0.379819 22.1588 0.373822 21.5676C0.367659 20.952 0.448428 20.3471 0.58296 19.7484C0.669778 19.3622 0.783266 18.9842 0.930077 18.6161C1.02981 18.3659 1.1403 18.122 1.28018 17.8921C1.3932 17.7066 1.52346 17.5334 1.67964 17.3819C1.84303 17.2234 2.02883 17.1015 2.25974 17.0621C2.43009 17.0329 2.5973 17.0604 2.763 17.0944C3.09048 17.1617 3.4083 17.2641 3.72393 17.373C3.99491 17.4665 4.26309 17.5685 4.53225 17.6674C4.55979 17.6776 4.58497 17.6935 4.62234 17.712Z" fill="#EAEDFD"/>
<path d="M5.01466 16.381C4.41703 16.2814 3.81806 16.1862 3.23733 16.0075C3.09059 15.9623 2.94273 15.9125 2.80644 15.8434C2.53809 15.7072 2.38535 15.4716 2.29708 15.1919C2.24505 15.0272 2.22193 14.8571 2.20303 14.6851C2.17724 14.4519 2.19214 14.2203 2.21593 13.9906C2.23994 13.7583 2.28707 13.5276 2.3371 13.2991C2.48918 12.6049 2.74753 11.9492 3.06924 11.3163C3.31047 10.8418 3.60751 10.4045 3.94701 9.99637C4.14267 9.7612 4.34877 9.5329 4.56555 9.317C4.93751 8.94698 5.33927 8.61106 5.79772 8.34933C6.00516 8.23086 6.22015 8.12634 6.45649 8.07497C6.69439 8.02315 6.93162 8.00499 7.16151 8.10818C7.32826 8.18303 7.46922 8.29729 7.60173 8.42041C7.97836 8.77072 8.31253 9.16045 8.64314 9.55305C8.70939 9.63188 8.77476 9.7116 8.84324 9.79397C8.5651 10.1215 8.28318 10.4417 8.0146 10.7727C7.7458 11.1042 7.49123 11.4472 7.25267 11.8017C7.01255 12.1582 6.78021 12.519 6.56388 12.8905C6.35022 13.2579 6.14589 13.6304 5.96625 14.015C5.78682 14.399 5.61429 14.7867 5.45666 15.18C5.29902 15.5728 5.1634 15.9738 5.01466 16.381Z" fill="#EAEDFD"/>
<path d="M16.4244 5.03332C15.1876 5.41485 14.0214 5.92792 12.9113 6.56765C11.7954 7.2107 10.7658 7.97133 9.81286 8.84313C9.68524 8.74082 9.56185 8.64848 9.44601 8.54773C9.18144 8.31788 8.9173 8.08714 8.65918 7.84998C8.49065 7.6952 8.34013 7.5227 8.20361 7.33825C8.10734 7.20804 8.05865 7.06123 8.0302 6.90401C7.98373 6.64781 8.0531 6.4091 8.13803 6.17393C8.27076 5.80702 8.48976 5.48925 8.73077 5.18633C9.00246 4.84443 9.31195 4.53796 9.64189 4.25231C10.0241 3.92126 10.4327 3.62565 10.8669 3.36524C11.5844 2.93477 12.359 2.64579 13.169 2.44716C13.4471 2.37896 13.7286 2.3205 14.0165 2.30367C14.1933 2.29327 14.37 2.26714 14.5463 2.26979C14.8151 2.274 15.0824 2.30102 15.3396 2.39247C15.6218 2.49278 15.8281 2.66882 15.9446 2.94783C16.0535 3.20846 16.1271 3.4795 16.1881 3.75408C16.2499 4.03243 16.3066 4.3121 16.3601 4.59222C16.3875 4.73526 16.4026 4.88053 16.4244 5.03332Z" fill="#EAEDFD"/>
<path d="M16.4337 37.9471C16.3808 38.2337 16.335 38.504 16.2801 38.7724C16.2245 39.0446 16.1647 39.316 16.0973 39.5855C16.062 39.7268 16.0104 39.8645 15.9593 40.0014C15.835 40.3329 15.5817 40.5322 15.2547 40.6349C14.9143 40.7419 14.5624 40.7769 14.2053 40.7352C14.0663 40.7191 13.9269 40.7045 13.788 40.6881C13.4916 40.6535 13.2017 40.5847 12.9166 40.5003C11.9826 40.2244 11.106 39.8282 10.3209 39.2458C10.0301 39.0302 9.75573 38.7954 9.49071 38.5483C9.15454 38.235 8.8515 37.894 8.58092 37.524C8.36525 37.229 8.18828 36.9135 8.08667 36.5596C8.01708 36.3171 8.00196 36.0769 8.09601 35.8366C8.15759 35.6794 8.26142 35.5499 8.37281 35.4276C8.59693 35.1816 8.83771 34.952 9.09051 34.7356C9.32573 34.5341 9.56541 34.3377 9.81042 34.1329C10.7609 35.0067 11.795 35.766 12.9129 36.411C14.0232 37.0516 15.1916 37.5627 16.4337 37.9471Z" fill="#EAEDFD"/>
<path d="M33.3624 8.82186C32.4021 7.94032 31.3652 7.18257 30.2433 6.54262C29.13 5.90754 27.9626 5.39359 26.7255 5.01848C26.7395 4.92082 26.7502 4.82361 26.768 4.72751C26.8173 4.46112 26.866 4.19451 26.9214 3.92923C26.985 3.62498 27.065 3.32449 27.17 3.03131C27.2916 2.6914 27.5275 2.4662 27.8705 2.34818C28.0497 2.28662 28.234 2.25119 28.4213 2.24211C28.6947 2.22904 28.9693 2.22661 29.2412 2.26492C29.6714 2.32537 30.0936 2.42302 30.5063 2.55876C30.9563 2.70668 31.3934 2.88715 31.8152 3.10305C32.3357 3.36944 32.8146 3.69628 33.2614 4.07206C33.5958 4.35328 33.9093 4.65554 34.1972 4.98327C34.4994 5.32738 34.7666 5.69607 34.9554 6.11547C35.0472 6.31986 35.1126 6.53354 35.1219 6.75985C35.1319 7.00121 35.0503 7.21313 34.9049 7.40312C34.7495 7.60618 34.5723 7.78953 34.3802 7.9576C34.0721 8.22753 33.7597 8.49303 33.4487 8.75986C33.424 8.78112 33.3957 8.79817 33.3624 8.82186Z" fill="#EAEDFD"/>
<path d="M33.3655 34.1581C33.4566 34.2319 33.5371 34.2957 33.6163 34.3608C33.9871 34.6661 34.3531 34.977 34.6843 35.3258C34.8062 35.454 34.9265 35.5849 35.0118 35.7414C35.1074 35.9163 35.1435 36.1043 35.1283 36.3027C35.0983 36.6978 34.9334 37.0419 34.7253 37.3707C34.5312 37.6774 34.301 37.956 34.0494 38.2155C33.4448 38.8391 32.7616 39.3626 31.997 39.7771C31.489 40.0526 30.9512 40.2572 30.3967 40.4197C30.0936 40.5085 29.7866 40.5818 29.4753 40.6347C29.323 40.6606 29.1683 40.6748 29.014 40.6854C28.8408 40.6974 28.6669 40.708 28.4935 40.7042C28.2536 40.6991 28.0179 40.6586 27.7911 40.5756C27.4976 40.4682 27.2944 40.2735 27.183 39.9784C27.0688 39.6757 26.9881 39.3643 26.922 39.0492C26.8575 38.7408 26.8031 38.4303 26.7459 38.1203C26.7368 38.0705 26.7362 38.0191 26.7308 37.96C29.219 37.1847 31.4289 35.921 33.3655 34.1581Z" fill="#EAEDFD"/>
<path d="M38.1732 16.3693C37.3808 13.8786 36.0977 11.6888 34.3251 9.77447C34.3675 9.7231 34.4038 9.67748 34.442 9.63342C34.657 9.38519 34.868 9.13364 35.0888 8.89072C35.3047 8.65312 35.529 8.42305 35.7873 8.22907C36.0239 8.0517 36.2863 7.99457 36.5786 8.03332C36.9226 8.07872 37.2258 8.22021 37.5155 8.39891C38.0674 8.73948 38.5312 9.17881 38.9534 9.66641C39.1806 9.92881 39.3912 10.203 39.5875 10.4882C39.9779 11.0555 40.2756 11.6693 40.501 12.3192C40.6389 12.7171 40.7518 13.1215 40.8256 13.5356C40.861 13.7338 40.8806 13.935 40.8999 14.1357C40.9137 14.2783 40.9246 14.4224 40.9197 14.5652C40.9104 14.8367 40.8766 15.1051 40.7707 15.36C40.662 15.6217 40.4797 15.8044 40.2124 15.9063C39.9203 16.0176 39.6195 16.0969 39.3144 16.1622C39.1099 16.2061 38.9054 16.249 38.6997 16.2865C38.5265 16.3181 38.352 16.3416 38.1732 16.3693Z" fill="#EAEDFD"/>
<path d="M34.3299 33.2031C36.0995 31.289 37.3875 29.097 38.1743 26.6072C38.2837 26.6231 38.3926 26.6351 38.5002 26.6552C38.7964 26.711 39.0934 26.7639 39.3874 26.8302C39.6626 26.8922 39.9354 26.9643 40.2004 27.066C40.545 27.1984 40.7469 27.4531 40.8552 27.7907C40.9135 27.9725 40.9488 28.1601 40.9468 28.353C40.945 28.5337 40.9561 28.7152 40.9419 28.8948C40.9266 29.0881 40.8943 29.2806 40.8592 29.4717C40.7305 30.1701 40.487 30.8304 40.1809 31.4692C39.9176 32.0184 39.5892 32.5268 39.199 32.9945C38.7386 33.5463 38.2312 34.0492 37.6345 34.4571C37.3935 34.6218 37.1369 34.7562 36.8628 34.8561C36.6702 34.9263 36.4695 34.9535 36.2654 34.9416C36.0584 34.9294 35.8885 34.8284 35.7289 34.7051C35.4556 34.4938 35.2233 34.241 34.9938 33.9861C34.7839 33.7531 34.5852 33.5104 34.3817 33.2717C34.3653 33.2525 34.3511 33.2314 34.3299 33.2031Z" fill="#EAEDFD"/>
<path d="M38.5755 25.2692C39.1225 22.7205 39.1134 20.1781 38.5215 17.6349C38.6237 17.5928 38.7235 17.5476 38.8264 17.5101C39.1096 17.4072 39.3922 17.3013 39.6788 17.2085C39.9472 17.1216 40.2187 17.0446 40.4985 16.997C40.8625 16.9353 41.166 17.0515 41.4313 17.2869C41.5741 17.4136 41.7001 17.5569 41.7966 17.7239C41.8872 17.8803 41.9893 18.0308 42.0686 18.1926C42.1539 18.3667 42.2242 18.5487 42.2914 18.7311C42.5366 19.3976 42.6637 20.0898 42.7258 20.7954C42.7792 21.4021 42.7558 22.0069 42.6585 22.6081C42.5435 23.3176 42.3633 24.0088 42.0578 24.6639C41.9344 24.9285 41.7821 25.1749 41.5972 25.4005C41.4673 25.559 41.3084 25.6848 41.1267 25.7785C40.9424 25.8736 40.7448 25.8732 40.5446 25.8485C40.2018 25.806 39.8731 25.7068 39.5457 25.6045C39.2464 25.511 38.9517 25.4035 38.6551 25.3018C38.6311 25.2936 38.6081 25.2828 38.5755 25.2692Z" fill="#EAEDFD"/>
<path d="M25.4353 4.47771C24.1679 4.21521 22.8989 4.10204 21.6179 4.12685C20.3302 4.15177 19.0614 4.32131 17.8061 4.62522C17.7436 4.47404 17.6801 4.33363 17.6273 4.18949C17.5064 3.86051 17.3863 3.53098 17.2746 3.19871C17.2017 2.98183 17.1531 2.75812 17.1225 2.53069C17.101 2.37019 17.1292 2.21811 17.1801 2.06666C17.263 1.81983 17.4389 1.6442 17.6267 1.47919C17.92 1.22183 18.2651 1.04914 18.6224 0.900071C19.0253 0.731666 19.4443 0.612529 19.8711 0.521492C20.3656 0.415899 20.8661 0.354105 21.3721 0.335485C22.2082 0.304553 23.0261 0.425129 23.8314 0.641897C24.108 0.71634 24.3827 0.800927 24.643 0.925089C24.8029 1.00125 24.9703 1.06363 25.1235 1.15102C25.3569 1.28438 25.578 1.43697 25.7592 1.64118C25.9579 1.86516 26.0537 2.1189 26.0211 2.4195C25.9908 2.70035 25.9245 2.97326 25.8454 3.24317C25.7653 3.5168 25.68 3.78912 25.5918 4.06034C25.5468 4.19883 25.4899 4.33336 25.4353 4.47771Z" fill="#EAEDFD"/>
<path d="M17.7606 38.3589C19.0203 38.6561 20.2857 38.8042 21.5669 38.8146C22.8548 38.8251 24.1278 38.6906 25.391 38.4213C25.4492 38.5741 25.5089 38.7162 25.5578 38.8618C25.6695 39.1939 25.7805 39.5267 25.883 39.8619C25.9499 40.0807 25.9924 40.3056 26.0167 40.5338C26.0338 40.6949 26.0014 40.8461 25.9464 40.9961C25.8567 41.2405 25.676 41.4113 25.4837 41.5711C25.1835 41.8203 24.8337 41.9834 24.4725 42.1226C24.0651 42.2798 23.643 42.3874 23.2139 42.4667C22.7167 42.5586 22.2146 42.6066 21.7083 42.6113C20.8717 42.6192 20.0574 42.4762 19.2583 42.2374C18.984 42.1553 18.7116 42.0632 18.4548 41.9319C18.2971 41.8514 18.1315 41.7845 17.9808 41.6929C17.7511 41.5532 17.5344 41.3945 17.3588 41.1854C17.1663 40.9561 17.0775 40.6998 17.1184 40.4002C17.1564 40.1203 17.2302 39.8493 17.3167 39.5817C17.4043 39.3103 17.497 39.0405 17.5926 38.7718C17.6415 38.6346 17.702 38.5017 17.7606 38.3589Z" fill="#EAEDFD"/>
</svg>
