<svg width="18" height="22" viewBox="0 0 18 22" fill="none" xmlns="http://www.w3.org/2000/svg">
<path d="M9.69664 0.282627C9.69664 0.282627 9.69718 0.28313 9.69893 0.284832L9.69784 0.283744L9.71045 0.295084C9.72808 0.310641 9.76296 0.340438 9.81707 0.382523C9.92523 0.46665 10.1107 0.60023 10.3895 0.767507C10.9469 1.10195 11.8797 1.57246 13.3162 2.05132C14.7858 2.54118 15.7451 2.77921 16.3211 2.89442C16.6087 2.95194 16.7987 2.97843 16.9073 2.99049C16.9615 2.99651 16.995 2.9989 17.0099 2.99977L17.0166 3.00014C17.5613 3.00902 18 3.45327 18 4V11C18 14.4464 15.7183 17.2003 13.6585 19.0026C12.6076 19.9221 11.5615 20.6408 10.78 21.1292C10.3882 21.3741 10.0603 21.5627 9.82807 21.6913C9.63026 21.8008 9.4417 21.8738 9.2373 21.935C9.08247 21.9814 8.91712 21.983 8.76219 21.9369C8.55755 21.8761 8.36954 21.8007 8.17193 21.6913C7.93968 21.5627 7.61177 21.3741 7.22 21.1292C6.43854 20.6408 5.39238 19.9221 4.3415 19.0026C2.28175 17.2003 0 14.4464 0 11V4C0 3.45328 0.438746 3.00903 0.983352 3.00014L0.990106 2.99977C1.00499 2.9989 1.0385 2.99651 1.09269 2.99049C1.20126 2.97843 1.39127 2.95194 1.67888 2.89442C2.25494 2.77921 3.21419 2.54118 4.68377 2.05132C6.12034 1.57246 7.05309 1.10195 7.6105 0.767507C7.8893 0.60023 8.07477 0.46665 8.18293 0.382523C8.23704 0.340438 8.27192 0.310641 8.28955 0.295084L8.30216 0.283743C8.69027 -0.0945812 9.30973 -0.0945809 9.69784 0.283744L9.69664 0.282627Z" fill="black"/>
</svg>
