<svg width="20" height="20" viewBox="0 0 20 20" fill="none" xmlns="http://www.w3.org/2000/svg">
<path d="M0 9.6C0 7.05392 1.05357 4.61212 2.92893 2.81178C4.8043 1.01143 7.34784 0 10 0C12.6522 0 15.1957 1.01143 17.0711 2.81178C18.9464 4.61212 20 7.05392 20 9.6V16.7143C20 17.6019 19.6293 18.4427 18.9867 19.0547C18.3458 19.6651 17.4864 20 16.6 20H15.4C14.5136 20 13.6542 19.6651 13.0133 19.0547C12.3707 18.4427 12 17.6019 12 16.7143V13.2857C12 12.3981 12.3707 11.5573 13.0133 10.9453C13.6542 10.3349 14.5136 10 15.4 10H17V9.6C17 7.89 16.2935 6.224 14.9935 4.97594C13.6892 3.72387 11.8951 3 10 3C8.10487 3 6.31076 3.72387 5.00653 4.97594C3.70646 6.224 3 7.89 3 9.6V10H4.6C5.48642 10 6.34576 10.3349 6.98671 10.9453C7.62932 11.5573 8 12.3981 8 13.2857V16.7143C8 17.6019 7.62932 18.4427 6.98671 19.0547C6.34576 19.6651 5.48642 20 4.6 20H3.4C2.51358 20 1.65424 19.6651 1.01329 19.0547C0.370681 18.4427 0 17.6019 0 16.7143V9.6Z" fill="black"/>
</svg>
